# Blender 4.5.3 LTS
# www.blender.org
mtllib fF_leftleg.mtl
o Animal.004
v -1.192686 0.006851 -0.319323
v -1.324210 0.814076 0.109257
v -1.198436 -0.033889 -0.156516
v -1.265277 0.720949 0.393569
v -1.058305 0.025958 -0.359136
v -1.080537 0.682829 0.145257
v -1.059462 -0.045566 -0.241351
v -1.093131 0.601065 0.278873
v -0.786352 0.478776 0.233408
v -0.751331 -0.201305 -0.325811
v -0.830787 -0.112478 -0.426618
v -0.759475 0.544421 0.135188
v 0.132951 0.431819 0.394279
v 0.157485 -0.274383 -0.142680
v 0.181270 -0.215761 -0.213102
v 0.154072 0.478811 0.334895
v 1.152523 0.086815 0.430465
v 1.012895 -0.428919 -0.010439
v 1.033066 -0.395210 -0.063368
v 1.166727 0.127568 0.376604
v 1.822148 -0.403241 0.213417
v 1.556113 -0.616110 -0.007984
v 1.559950 -0.597983 -0.036848
v 1.822533 -0.381081 0.183086
v 1.688386 -0.659536 -0.007527
v 1.691154 -0.647055 -0.028752
v 0.667412 0.330273 0.375392
v 0.650301 0.281224 0.435803
v 0.598173 -0.323755 -0.056470
v 0.617637 -0.280756 -0.119205
v -0.247080 0.525447 0.267489
v -0.268923 0.472212 0.333223
v -0.243452 -0.300242 -0.267782
v -0.144641 -0.252519 -0.334303
v -1.178581 0.291374 0.252773
v -1.074021 0.262087 0.086772
v -1.042145 0.401050 -0.170374
v -0.816276 0.166346 0.012131
v -0.784011 0.295834 -0.166032
v 0.149606 0.054033 0.135484
v 0.188751 0.145881 0.015046
v 1.080688 -0.178941 0.228869
v 1.108037 -0.104322 0.130869
v 1.687335 -0.510041 0.120601
v 1.683480 -0.463062 0.065638
v 1.827535 -0.602619 0.066946
v 1.826002 -0.584297 0.043781
v 0.622891 -0.036869 0.207453
v -0.220362 0.081587 0.068400
v -1.223910 0.476150 -0.230905
v 0.655993 0.048740 0.093683
v -0.180818 0.186325 -0.067711
v -1.207374 0.031761 0.039854
v -1.056344 0.030602 -0.104582
v -1.040958 0.155796 -0.332568
v -0.785747 -0.085446 -0.188350
v -0.753103 0.001559 -0.373201
v 0.149709 -0.178974 -0.049069
v 0.184878 -0.095430 -0.155262
v 1.034340 -0.366170 0.072673
v 1.060127 -0.304243 -0.011672
v 1.602507 -0.601493 0.033812
v 1.603653 -0.564671 -0.014037
v 0.601749 -0.244994 0.035304
v -0.207317 -0.187246 -0.134044
v -1.208059 0.183169 -0.371824
v 0.631609 -0.172720 -0.062535
v -0.212487 -0.108295 -0.290549
v 1.337329 -0.501876 -0.043830
v 1.544569 -0.104743 0.322328
v 1.325414 -0.528733 -0.001284
v 1.534062 -0.136808 0.364931
v 1.433368 -0.338621 0.197160
v 1.448928 -0.276663 0.117788
v 1.363455 -0.486090 0.066497
v 1.377530 -0.434815 -0.001930
v -1.188684 -0.053395 -0.252322
v -1.333709 0.847023 0.287580
v -1.070191 -0.043100 -0.317385
v -1.104304 0.699281 0.258859
v -0.838850 -0.183463 -0.397721
v -0.802240 0.555324 0.228648
v 0.167440 -0.276574 -0.189399
v 0.135611 0.495577 0.414469
v 1.015445 -0.437054 -0.047159
v 1.170418 0.137734 0.443288
v 1.542310 -0.620304 -0.026588
v 1.843052 -0.382579 0.218870
v 1.699681 -0.675954 -0.021907
v 0.603500 -0.331025 -0.099699
v 0.659411 0.337998 0.451610
v -0.161629 -0.320348 -0.313104
v -0.269371 0.549532 0.348954
v 1.861877 -0.630033 0.048201
v 1.554949 -0.096036 0.377709
v 1.320261 -0.535530 -0.030368
v -0.663088 -0.313028 -0.472331
v -0.525424 -0.329267 -0.409433
v -0.517995 -0.203549 -0.451489
v -0.654134 -0.261190 -0.496466
v -0.387830 -0.314223 -0.457197
v -0.398144 -0.366325 -0.434597
v -0.517736 0.474694 0.289677
v -0.511098 -0.278025 -0.312826
v -0.497177 0.534653 0.209528
v -0.531115 0.109215 0.011052
v -0.497198 0.230242 -0.136974
v -0.505648 -0.164064 -0.192849
v -0.492358 -0.049843 -0.344762
v -0.535515 0.552749 0.292036
v -0.524755 -0.313389 -0.502303
v -0.533527 -0.361511 -0.480676
v 0.415932 0.349447 0.416991
v 0.398532 -0.301388 -0.095524
v 0.434859 0.397563 0.357046
v 0.419953 -0.251312 -0.161742
v 0.408484 0.004312 0.174850
v 0.444322 0.092747 0.058060
v 0.396966 -0.215087 -0.002920
v 0.429231 -0.137706 -0.104542
v 0.422120 0.409384 0.434784
v 0.405956 -0.306357 -0.140336
v -1.192686 0.006851 -0.319323
v -1.324210 0.814076 0.109257
v -1.198436 -0.033889 -0.156516
v -1.265277 0.720949 0.393569
v -1.178581 0.291374 0.252773
v -1.223910 0.476150 -0.230905
v -1.207374 0.031761 0.039854
v -1.208059 0.183169 -0.371824
v -1.188684 -0.053395 -0.252322
v -1.333709 0.847023 0.287580
v -1.380180 0.866886 0.536943
v -1.447846 1.035789 0.299585
v -1.460495 1.031302 0.031247
v -1.212275 -0.143866 0.139941
v -1.276463 -0.129684 -0.307408
v -1.354610 0.145317 -0.521017
v -1.230521 0.272861 0.418869
v -1.438110 0.558132 -0.311933
vn -0.1252 -0.5970 0.7924
vn -0.0992 -0.6183 0.7797
vn 0.0942 -0.5351 0.8395
vn 0.7407 -0.3085 0.5968
vn 0.3522 -0.0462 0.9348
vn 0.5777 0.4693 0.6678
vn 0.3923 -0.5254 0.7550
vn -0.0606 -0.2646 0.9625
vn -0.2404 -0.4907 -0.8375
vn -0.3344 -0.8229 -0.4595
vn -0.0636 -0.9977 -0.0224
vn 0.5952 0.6606 0.4575
vn 0.5261 0.7927 -0.3080
vn 0.6074 0.7902 0.0812
vn 0.0693 0.6685 0.7405
vn 0.1653 0.8628 -0.4778
vn -0.0508 0.7296 0.6819
vn 0.1283 0.4928 -0.8606
vn -0.1334 -0.0422 -0.9902
vn 0.1816 0.3795 -0.9072
vn -0.6050 -0.7154 -0.3495
vn -0.1097 -0.9526 0.2837
vn 0.1981 0.6642 0.7208
vn 0.4258 0.8524 -0.3035
vn 0.3641 0.5943 0.7171
vn 0.3126 0.8620 -0.3992
vn 0.1808 0.6024 0.7775
vn 0.2095 0.9079 -0.3631
vn 0.3527 0.6107 -0.7090
vn 0.2528 0.4869 -0.8361
vn 0.3997 0.0203 -0.9164
vn 0.2778 0.4959 -0.8227
vn 0.2691 -0.9107 -0.3134
vn -0.1105 -0.9057 0.4092
vn -0.1074 -0.8549 0.5076
vn 0.2190 0.4689 -0.8557
vn 0.0474 0.0132 -0.9988
vn 0.0673 0.0509 -0.9964
vn 0.2650 0.5910 -0.7619
vn 0.5524 0.5833 -0.5954
vn 0.2821 0.5163 -0.8086
vn 0.2324 0.4785 -0.8468
vn 0.1782 0.0251 -0.9837
vn 0.2491 0.4830 -0.8394
vn -0.0749 -0.8622 -0.5009
vn -0.2811 -0.8632 0.4194
vn -0.2273 -0.8848 0.4067
vn -0.1853 -0.5867 0.7884
vn -0.1942 -0.3450 0.9183
vn -0.1667 -0.5957 0.7857
vn -0.3094 -0.8706 -0.3825
vn -0.2983 -0.8411 0.4512
vn -0.2777 -0.8456 -0.4560
vn 0.9079 0.1828 0.3773
vn 0.4841 0.7448 -0.4593
vn 0.5888 0.4463 0.6739
vn 0.3902 0.8070 -0.4433
vn 0.2589 0.6095 -0.7493
vn -0.2066 -0.5781 0.7894
vn -0.0461 -0.4621 0.8856
vn -0.1172 -0.4048 0.9069
vn 0.2259 0.4233 -0.8774
vn 0.2410 0.1388 -0.9606
vn -0.1866 -0.7155 0.6733
vn -0.2707 -0.8283 0.4906
vn -0.1855 -0.8972 0.4007
vn 0.0026 -0.8570 -0.5153
vn 0.2562 0.4834 -0.8371
vn 0.2128 0.0162 -0.9770
vn 0.2556 0.6158 -0.7453
vn 0.2857 0.8649 -0.4128
vn 0.1251 0.6213 0.7735
vn 0.4137 -0.0292 -0.9100
vn 0.1556 -0.9524 -0.2622
vn 0.1445 0.8872 -0.4383
vn 0.2343 0.6404 -0.7315
vn 0.2341 0.6586 -0.7152
vn -0.1165 0.7458 0.6560
vn -0.2298 -0.5806 0.7811
vn -0.1694 -0.4100 0.8962
vn -0.1915 -0.4175 0.8883
vn -0.1731 -0.5871 0.7908
vn -0.2243 -0.5804 0.7829
vn 0.2494 0.8665 -0.4324
vn -0.1864 -0.4308 0.8830
vn -0.1678 -0.3876 0.9064
vn 0.4659 0.5797 -0.6685
vn 0.6520 -0.5348 0.5375
vn 0.1746 -0.7824 0.5978
vn -0.0651 -0.6055 0.7932
vn 0.2555 0.2420 -0.9360
vn -0.1923 -0.6530 0.7325
vn -0.1798 -0.6640 0.7257
vn -0.2339 -0.6709 0.7037
vn -0.2250 -0.6762 0.7016
vn 0.2649 -0.9230 -0.2790
vn 0.4077 0.4186 -0.8115
vn 0.8320 -0.5546 0.0143
vn -0.2010 -0.6920 0.6933
vn -0.2269 -0.6640 0.7125
vn -0.1999 -0.6613 0.7230
vn -0.2201 -0.7819 0.5833
vn -0.1750 -0.6992 0.6932
vn 0.3443 -0.8562 0.3851
vn 0.2337 0.5554 -0.7981
vn 0.2727 0.5946 -0.7563
vn 0.2360 0.6548 -0.7180
vn -0.2363 -0.6641 0.7093
vn -0.2083 -0.8503 -0.4832
vn 0.1054 0.0539 -0.9930
vn 0.1570 -0.8449 -0.5114
vn -0.2795 0.0745 -0.9572
vn -0.1425 -0.9313 -0.3353
vn -0.2302 -0.8606 0.4543
vn 0.2177 0.4517 -0.8652
vn 0.1385 -0.0028 -0.9904
vn -0.1509 0.0557 -0.9870
vn -0.4579 -0.8365 -0.3011
vn -0.3048 -0.8277 0.4712
vn 0.2909 0.0675 -0.9544
vn 0.2446 0.6269 -0.7397
vn -0.2089 -0.5817 0.7862
vn 0.8201 0.5625 0.1051
vn 0.8852 0.4076 0.2245
vn 0.8821 0.2033 0.4249
vn 0.8101 0.5140 -0.2819
vn 0.8684 0.4954 0.0205
vn 0.5672 0.5527 -0.6105
vn 0.8670 0.4374 -0.2387
vn 0.6946 -0.6850 -0.2200
vn 0.7914 -0.6079 -0.0642
vn 0.8246 -0.3124 -0.4717
vn 0.6457 -0.3933 -0.6545
vn 0.6145 0.2121 -0.7599
vn 0.4652 0.5415 -0.7003
vn 0.9519 -0.0061 0.3063
vn 0.9609 -0.0738 0.2670
vn 0.9925 -0.1224 0.0051
vn 0.9875 -0.1576 -0.0084
vn 0.6665 0.1592 -0.7283
vt 0.765788 0.898580
vt 0.756452 0.913167
vt 0.780458 0.910583
vt 0.827837 0.595663
vt 0.860197 0.611687
vt 0.874871 0.590476
vt 0.814841 0.613838
vt 0.847195 0.640211
vt 0.856524 0.954569
vt 0.851472 0.940013
vt 0.846559 0.953547
vt 0.978248 0.964836
vt 0.967162 0.993207
vt 0.989050 0.991696
vt 0.993755 0.818745
vt 0.978496 0.865904
vt 0.988290 0.868868
vt 0.868294 0.904407
vt 0.861066 0.939710
vt 0.877531 0.943090
vt 0.743693 0.639526
vt 0.764762 0.615243
vt 0.757002 0.613440
vt 0.972043 0.931420
vt 0.964072 0.964290
vt 0.988119 0.693099
vt 0.985762 0.755056
vt 0.994741 0.755654
vt 0.960729 0.927079
vt 0.912761 0.951130
vt 0.896052 0.794982
vt 0.862580 0.829190
vt 0.877652 0.841345
vt 0.743212 0.709442
vt 0.758293 0.743134
vt 0.748468 0.701586
vt 0.911489 0.651360
vt 0.901205 0.625315
vt 0.901437 0.652951
vt 0.935365 0.649760
vt 0.941660 0.607088
vt 0.923283 0.618237
vt 0.912575 0.690832
vt 0.893470 0.739765
vt 0.907607 0.742097
vt 0.757319 0.788324
vt 0.759531 0.830443
vt 0.761695 0.788328
vt 0.799557 0.702871
vt 0.851182 0.667666
vt 0.797293 0.670630
vt 0.746986 0.884923
vt 0.754240 0.862655
vt 0.751359 0.861819
vt 0.945114 0.603965
vt 0.967185 0.645168
vt 0.973430 0.643565
vt 0.980446 0.693830
vt 0.939578 0.747378
vt 0.794263 0.835956
vt 0.808168 0.880497
vt 0.827521 0.841214
vt 0.907123 0.622287
vt 0.902470 0.610129
vt 0.746486 0.899939
vt 0.748759 0.886418
vt 0.760154 0.767854
vt 0.755600 0.768095
vt 0.902372 0.766055
vt 0.887758 0.763164
vt 0.935620 0.772463
vt 0.985084 0.782941
vt 0.994294 0.784235
vt 0.844676 0.855363
vt 0.731264 0.685470
vt 0.971643 0.896598
vt 0.920269 0.846138
vt 0.911855 0.883475
vt 0.981226 0.901260
vt 0.801757 0.767404
vt 0.841501 0.789842
vt 0.845108 0.765935
vt 0.781921 0.872186
vt 0.801411 0.789369
vt 0.984264 0.816609
vt 0.849462 0.737068
vt 0.852290 0.694379
vt 0.911598 0.973741
vt 0.793527 0.596947
vt 0.781876 0.615412
vt 0.802153 0.640264
vt 0.875884 0.962630
vt 0.771589 0.742287
vt 0.765779 0.705305
vt 0.773748 0.788685
vt 0.762162 0.866434
vt 0.900009 0.607687
vt 0.916403 0.598787
vt 0.913983 0.592767
vt 0.752971 0.891085
vt 0.772770 0.767666
vt 0.762570 0.674812
vt 0.746126 0.674655
vt 0.767475 0.645419
vt 0.772736 0.601341
vt 0.872650 0.874167
vt 0.941344 0.692758
vt 0.909437 0.918522
vt 0.769893 0.832568
vt 0.782615 0.912577
vt 0.755779 0.830245
vt 0.900052 0.690342
vt 0.896854 0.653234
vt 0.894470 0.690260
vt 0.812498 0.882239
vt 0.832842 0.842460
vt 0.744403 0.901182
vt 0.860188 0.693527
vt 0.858847 0.665130
vt 0.854388 0.826688
vt 0.847344 0.790130
vt 0.851282 0.765894
vt 0.887059 0.738648
vt 0.880834 0.761554
vt 0.897847 0.626028
vt 0.873316 0.789211
vt 0.855292 0.638567
vt 0.870716 0.612895
vt 0.851450 0.908413
vt 0.856037 0.736632
vt 0.763091 0.602183
vt 0.727833 0.671771
vt 0.735452 0.672898
vt 0.852064 0.872274
vt 0.839399 0.869732
vt 0.838485 0.853127
vt 0.833755 0.868531
vt 0.840584 0.884129
vt 0.842445 0.908253
vt 0.731000 0.658553
vt 0.749290 0.649629
vt 0.834106 0.883930
vt 0.880861 0.791416
vt 0.930841 0.802749
vt 0.802174 0.740883
vt 0.753524 0.743671
vt 0.270747 0.263534
vt 0.239808 0.243909
vt 0.253771 0.272108
vt 0.288973 0.276171
vt 0.278217 0.237539
vt 0.319470 0.326666
vt 0.310495 0.253588
vt 0.277199 0.388289
vt 0.266148 0.384038
vt 0.276978 0.402946
vt 0.286896 0.384359
vt 0.277414 0.388415
vt 0.301002 0.369259
vt 0.303087 0.332819
vt 0.222860 0.319613
vt 0.243685 0.325117
vt 0.228024 0.378779
vt 0.248430 0.365622
vt 0.315839 0.385588
vt 0.753452 0.916789
vt 0.889526 0.597277
s 1
usemtl Creature
f 44/1/1 46/2/2 21/3/3
f 35/4/4 8/5/5 4/6/6
f 36/7/7 9/8/8 8/5/5
f 1/9/9 79/10/10 77/11/11
f 80/12/12 2/13/13 78/14/14
f 84/15/15 31/16/16 93/17/17
f 57/18/18 5/19/19 55/20/20
f 81/21/21 7/22/22 79/23/10
f 82/24/23 6/25/24 80/12/12
f 86/26/25 27/27/26 91/28/27
f 12/29/28 37/30/29 6/25/24
f 59/31/30 34/32/31 68/33/32
f 92/34/33 14/35/34 33/36/35
f 76/37/36 23/38/37 69/39/38
f 74/40/39 24/41/40 45/42/41
f 61/43/42 30/44/43 67/45/44
f 90/46/45 18/47/46 29/48/47
f 49/49/48 103/50/49 106/51/50
f 87/52/51 71/53/52 96/54/53
f 88/55/54 70/56/55 95/57/56
f 20/58/57 51/59/58 27/27/26
f 42/60/59 72/61/60 17/62/61
f 63/63/62 26/64/63 23/38/37
f 87/52/51 25/65/64 22/66/65
f 90/46/45 114/67/66 122/68/67
f 120/69/68 30/44/43 116/70/69
f 27/27/26 118/71/70 115/72/71
f 91/28/27 115/72/71 121/73/72
f 101/74/73 68/33/32 34/32/31
f 33/36/35 102/75/74 92/34/33
f 105/76/75 52/77/76 107/78/77
f 93/17/17 105/76/75 110/79/78
f 117/80/79 28/81/80 113/82/81
f 73/83/82 21/3/3 72/61/60
f 48/84/83 17/62/61 28/81/80
f 16/85/84 52/77/76 31/16/16
f 49/49/48 13/86/85 32/87/86
f 50/88/87 6/25/24 37/30/29
f 53/89/88 36/7/7 35/4/4
f 54/90/89 38/91/90 36/7/7
f 66/92/91 37/30/29 55/20/20
f 58/93/92 49/49/48 65/94/93
f 64/95/94 42/60/59 48/84/83
f 75/96/95 44/1/1 73/83/82
f 89/97/96 47/98/97 94/99/98
f 25/65/64 44/1/1 62/100/99
f 64/95/94 117/80/79 119/101/100
f 108/102/101 49/49/48 106/51/50
f 33/36/35 108/102/101 104/103/102
f 29/48/47 119/101/100 114/67/66
f 22/66/65 25/65/64 62/100/99
f 22/66/65 75/96/95 71/53/52
f 18/47/46 64/95/94 29/48/47
f 14/35/34 65/94/93 33/36/35
f 5/19/19 66/92/91 55/20/20
f 7/22/22 56/104/103 54/90/89
f 3/105/104 54/90/89 53/89/88
f 107/78/77 68/33/32 109/106/105
f 118/71/70 67/45/44 120/69/68
f 45/42/41 26/64/63 63/63/62
f 43/107/106 67/45/44 51/59/58
f 45/42/41 76/37/36 74/40/39
f 52/77/76 59/31/30 68/33/32
f 39/108/107 55/20/20 37/30/29
f 74/40/39 61/43/42 43/107/106
f 71/53/52 60/109/108 18/47/46
f 46/2/2 88/110/54 21/3/3
f 60/109/108 73/83/82 42/60/59
f 70/56/55 43/107/106 20/58/57
f 95/57/56 20/58/57 86/26/25
f 96/54/53 18/47/46 85/111/109
f 61/43/42 69/39/38 19/112/110
f 19/112/110 96/113/53 85/114/109
f 17/62/61 95/115/56 86/116/25
f 89/117/96 46/2/2 25/65/64
f 9/8/8 106/51/50 103/50/49
f 103/50/49 93/118/17 110/119/78
f 92/120/33 101/74/73 34/32/31
f 113/82/81 91/121/27 121/122/72
f 116/70/69 90/123/45 122/124/67
f 26/64/63 87/125/51 23/38/37
f 72/61/60 88/110/54 95/115/56
f 69/39/38 87/125/51 96/113/53
f 30/44/43 85/114/109 90/123/45
f 34/32/31 83/126/111 92/120/33
f 28/81/80 86/116/25 91/121/27
f 8/5/5 82/127/23 80/128/12
f 11/129/112 79/10/10 5/19/19
f 32/87/86 84/130/15 93/118/17
f 80/128/12 4/6/6 8/5/5
f 77/131/11 7/22/22 3/105/104
f 112/132/113 102/75/74 98/133/114
f 99/134/115 101/74/73 111/135/116
f 111/135/116 102/136/74 112/137/113
f 109/106/105 99/134/115 57/18/18
f 57/18/18 100/138/117 11/129/112
f 104/103/102 98/133/114 33/36/35
f 100/138/117 81/139/21 11/129/112
f 97/140/118 10/141/119 81/21/21
f 10/141/119 98/133/114 104/103/102
f 68/33/32 99/134/115 109/106/105
f 111/135/116 97/142/118 100/138/117
f 99/134/115 111/135/116 100/138/117
f 97/140/118 112/132/113 98/133/114
f 9/8/8 110/119/78 82/127/23
f 107/78/77 57/18/18 39/108/107
f 10/141/119 108/102/101 56/104/103
f 56/104/103 106/51/50 38/91/90
f 12/29/28 107/78/77 39/108/107
f 110/79/78 12/29/28 82/24/23
f 24/41/40 47/98/97 45/42/41
f 47/98/97 88/55/54 94/99/98
f 15/143/120 122/124/67 83/126/111
f 13/86/85 121/122/72 84/130/15
f 118/71/70 59/31/30 41/144/121
f 114/67/66 58/93/92 14/35/34
f 58/93/92 117/80/79 40/145/122
f 40/145/122 113/82/81 13/86/85
f 121/73/72 16/85/84 84/15/15
f 115/72/71 41/144/121 16/85/84
f 120/69/68 15/143/120 59/31/30
f 122/68/67 14/35/34 83/146/111
f 132/147/123 133/148/124 126/149/125
f 124/150/126 134/151/127 132/147/123
f 124/150/126 140/152/128 135/153/129
f 131/154/130 125/155/131 137/156/132
f 137/156/132 123/157/133 131/158/130
f 130/159/134 140/152/128 128/160/135
f 126/149/125 139/161/136 127/162/137
f 127/162/137 136/163/138 129/164/139
f 125/155/131 136/163/138 137/156/132
f 138/165/140 123/157/133 137/156/132
f 35/4/4 36/7/7 8/5/5
f 36/7/7 38/91/90 9/8/8
f 1/9/9 5/19/19 79/10/10
f 80/12/12 6/25/24 2/13/13
f 84/15/15 16/85/84 31/16/16
f 57/18/18 11/129/112 5/19/19
f 81/21/21 10/141/119 7/22/22
f 82/24/23 12/29/28 6/25/24
f 86/26/25 20/58/57 27/27/26
f 12/29/28 39/108/107 37/30/29
f 59/31/30 15/143/120 34/32/31
f 92/34/33 83/146/111 14/35/34
f 76/37/36 63/63/62 23/38/37
f 74/40/39 70/56/55 24/41/40
f 61/43/42 19/112/110 30/44/43
f 90/46/45 85/111/109 18/47/46
f 49/49/48 32/87/86 103/50/49
f 87/52/51 22/66/65 71/53/52
f 88/55/54 24/41/40 70/56/55
f 20/58/57 43/107/106 51/59/58
f 42/60/59 73/83/82 72/61/60
f 87/52/51 89/117/96 25/65/64
f 90/46/45 29/48/47 114/67/66
f 120/69/68 67/45/44 30/44/43
f 27/27/26 51/59/58 118/71/70
f 91/28/27 27/27/26 115/72/71
f 101/74/73 99/134/115 68/33/32
f 33/36/35 98/133/114 102/75/74
f 105/76/75 31/16/16 52/77/76
f 93/17/17 31/16/16 105/76/75
f 117/80/79 48/84/83 28/81/80
f 73/83/82 44/1/1 21/3/3
f 48/84/83 42/60/59 17/62/61
f 16/85/84 41/144/121 52/77/76
f 49/49/48 40/145/122 13/86/85
f 50/88/87 2/13/13 6/25/24
f 53/89/88 54/90/89 36/7/7
f 54/90/89 56/104/103 38/91/90
f 66/92/91 50/88/87 37/30/29
f 58/93/92 40/145/122 49/49/48
f 64/95/94 60/109/108 42/60/59
f 75/96/95 62/100/99 44/1/1
f 89/97/96 26/64/63 47/98/97
f 25/65/64 46/2/2 44/1/1
f 64/95/94 48/84/83 117/80/79
f 108/102/101 65/94/93 49/49/48
f 33/36/35 65/94/93 108/102/101
f 29/48/47 64/95/94 119/101/100
f 22/66/65 62/100/99 75/96/95
f 18/47/46 60/109/108 64/95/94
f 14/35/34 58/93/92 65/94/93
f 5/19/19 1/9/9 66/92/91
f 7/22/22 10/141/119 56/104/103
f 3/105/104 7/22/22 54/90/89
f 107/78/77 52/77/76 68/33/32
f 118/71/70 51/59/58 67/45/44
f 45/42/41 47/98/97 26/64/63
f 43/107/106 61/43/42 67/45/44
f 45/42/41 63/63/62 76/37/36
f 52/77/76 41/144/121 59/31/30
f 39/108/107 57/18/18 55/20/20
f 74/40/39 76/37/36 61/43/42
f 71/53/52 75/96/95 60/109/108
f 46/2/2 94/166/98 88/110/54
f 60/109/108 75/96/95 73/83/82
f 70/56/55 74/40/39 43/107/106
f 95/57/56 70/56/55 20/58/57
f 96/54/53 71/53/52 18/47/46
f 61/43/42 76/37/36 69/39/38
f 19/112/110 69/39/38 96/113/53
f 17/62/61 72/61/60 95/115/56
f 89/117/96 94/166/98 46/2/2
f 9/8/8 38/91/90 106/51/50
f 103/50/49 32/87/86 93/118/17
f 92/120/33 102/136/74 101/74/73
f 113/82/81 28/81/80 91/121/27
f 116/70/69 30/44/43 90/123/45
f 26/64/63 89/97/96 87/125/51
f 72/61/60 21/3/3 88/110/54
f 69/39/38 23/38/37 87/125/51
f 30/44/43 19/112/110 85/114/109
f 34/32/31 15/143/120 83/126/111
f 28/81/80 17/62/61 86/116/25
f 8/5/5 9/8/8 82/127/23
f 11/129/112 81/139/21 79/10/10
f 32/87/86 13/86/85 84/130/15
f 80/128/12 78/167/14 4/6/6
f 77/131/11 79/23/10 7/22/22
f 111/135/116 101/74/73 102/136/74
f 57/18/18 99/134/115 100/138/117
f 100/138/117 97/142/118 81/139/21
f 97/140/118 98/133/114 10/141/119
f 111/135/116 112/137/113 97/142/118
f 9/8/8 103/50/49 110/119/78
f 107/78/77 109/106/105 57/18/18
f 10/141/119 104/103/102 108/102/101
f 56/104/103 108/102/101 106/51/50
f 12/29/28 105/76/75 107/78/77
f 110/79/78 105/76/75 12/29/28
f 47/98/97 24/41/40 88/55/54
f 15/143/120 116/70/69 122/124/67
f 13/86/85 113/82/81 121/122/72
f 118/71/70 120/69/68 59/31/30
f 114/67/66 119/101/100 58/93/92
f 58/93/92 119/101/100 117/80/79
f 40/145/122 117/80/79 113/82/81
f 121/73/72 115/72/71 16/85/84
f 115/72/71 118/71/70 41/144/121
f 120/69/68 116/70/69 15/143/120
f 122/68/67 114/67/66 14/35/34
f 132/147/123 134/151/127 133/148/124
f 124/150/126 135/153/129 134/151/127
f 124/150/126 128/160/135 140/152/128
f 130/159/134 138/165/140 140/152/128
f 126/149/125 133/148/124 139/161/136
f 127/162/137 139/161/136 136/163/138
f 125/155/131 129/164/139 136/163/138
f 138/165/140 130/159/134 123/157/133
