# Blender 4.5.3 LTS
# www.blender.org
mtllib j_tail.mtl
o 1.005
v -0.059555 0.824108 -0.816164
v 0.002886 0.808668 -0.815161
v -0.112490 0.868077 -0.819019
v -0.147860 0.933881 -0.823293
v -0.160280 1.011503 -0.828335
v -0.147860 1.089124 -0.833376
v -0.112490 1.154929 -0.837649
v -0.059555 1.198898 -0.840505
v 0.002886 1.214338 -0.841508
v 0.065328 1.198898 -0.840505
v 0.118263 1.154929 -0.837649
v 0.153633 1.089124 -0.833376
v 0.166053 1.011503 -0.828335
v 0.153633 0.933881 -0.823293
v 0.118263 0.868077 -0.819019
v 0.065328 0.824108 -0.816164
v -0.022774 0.808896 -0.664577
v 0.002886 0.764774 -0.805116
v -0.059924 0.840788 -0.673517
v -0.083872 0.887148 -0.687706
v -0.090974 0.940918 -0.704986
v -0.080147 0.993912 -0.722723
v -0.053041 1.038062 -0.738218
v -0.013781 1.066647 -0.749112
v 0.031655 1.075315 -0.753748
v 0.076350 1.062746 -0.751418
v 0.113499 1.030854 -0.742478
v 0.137448 0.984494 -0.728288
v 0.144549 0.930724 -0.711010
v 0.133723 0.877731 -0.693272
v 0.106616 0.833580 -0.677777
v 0.067357 0.804995 -0.666882
v -0.008413 0.764791 -0.613548
v 0.021386 0.757022 -0.616649
v -0.032997 0.784304 -0.606258
v -0.048622 0.812592 -0.595890
v -0.052911 0.845348 -0.584022
v -0.045210 0.877584 -0.572460
v -0.026692 0.904394 -0.562966
v -0.000175 0.921696 -0.556983
v 0.030303 0.926856 -0.555424
v 0.060101 0.919087 -0.558525
v 0.084685 0.899574 -0.565815
v 0.100311 0.871286 -0.576183
v 0.104599 0.838530 -0.588051
v 0.096898 0.806294 -0.599612
v 0.078380 0.779483 -0.609107
v 0.051864 0.762182 -0.615090
v -0.004668 0.695771 -0.556432
v 0.019442 0.691491 -0.561576
v -0.024598 0.705850 -0.543031
v -0.037314 0.720193 -0.523412
v -0.040879 0.736618 -0.500561
v -0.034750 0.752625 -0.477956
v -0.019862 0.765775 -0.459041
v 0.001520 0.774068 -0.446694
v 0.026141 0.776239 -0.442795
v 0.050251 0.771959 -0.447940
v 0.070180 0.761878 -0.461344
v 0.082895 0.747533 -0.480966
v 0.086460 0.731107 -0.503819
v 0.080332 0.715101 -0.526421
v 0.065444 0.701952 -0.545335
v 0.044062 0.693662 -0.557679
v -0.022083 0.266964 -0.312721
v -0.002585 0.263501 -0.316882
v -0.038199 0.275119 -0.301878
v -0.048481 0.286724 -0.286004
v -0.051362 0.300013 -0.267516
v -0.046404 0.312963 -0.249228
v -0.034363 0.323602 -0.233927
v -0.017070 0.330311 -0.223938
v 0.002841 0.332068 -0.220785
v 0.022339 0.328606 -0.224946
v 0.038455 0.320451 -0.235789
v 0.048737 0.308846 -0.251663
v 0.051618 0.295556 -0.270150
v 0.046660 0.282606 -0.288437
v 0.034619 0.271967 -0.303740
v 0.017326 0.265258 -0.313729
v -0.027187 -0.076611 -0.049803
v -0.010690 -0.079541 -0.053325
v -0.040822 -0.069712 -0.040629
v -0.049521 -0.059893 -0.027199
v -0.051959 -0.048649 -0.011558
v -0.047764 -0.037693 0.003914
v -0.037576 -0.028692 0.016861
v -0.022945 -0.023015 0.025312
v -0.006100 -0.021529 0.027980
v 0.010397 -0.024459 0.024459
v 0.024032 -0.031358 0.015285
v 0.032731 -0.041177 0.001855
v 0.035169 -0.052420 -0.013787
v 0.030974 -0.063377 -0.029258
v 0.020786 -0.072378 -0.042205
v 0.006156 -0.078054 -0.050656
v -0.020987 -0.352767 0.232441
v -0.007407 -0.355178 0.229544
v -0.032213 -0.347088 0.239993
v -0.039375 -0.339005 0.251048
v -0.041382 -0.329749 0.263925
v -0.037929 -0.320729 0.276663
v -0.029541 -0.313318 0.287323
v -0.017496 -0.308644 0.294281
v -0.003627 -0.307420 0.296477
v 0.009953 -0.309832 0.293579
v 0.021178 -0.315513 0.286026
v 0.028340 -0.323597 0.274968
v 0.030346 -0.332854 0.262090
v 0.026893 -0.341873 0.249353
v 0.018506 -0.349283 0.238696
v 0.006462 -0.353955 0.231740
v -0.024699 -0.615551 0.441944
v -0.011118 -0.617962 0.439046
v -0.035925 -0.609871 0.449497
v -0.043086 -0.601787 0.460553
v -0.045093 -0.592530 0.473430
v -0.041640 -0.583511 0.486168
v -0.033252 -0.576101 0.496827
v -0.021208 -0.571428 0.503784
v -0.007339 -0.570204 0.505980
v 0.006242 -0.572616 0.503081
v 0.017467 -0.578296 0.495529
v 0.024628 -0.586379 0.484473
v 0.026635 -0.595635 0.471595
v 0.023182 -0.604655 0.458858
v 0.014795 -0.612066 0.448200
v 0.002750 -0.616739 0.441242
v -0.054354 -0.767984 0.472551
v -0.017242 -0.774575 0.464631
v -0.085029 -0.752462 0.493190
v -0.104599 -0.730373 0.523404
v -0.110083 -0.705078 0.558591
v -0.100647 -0.680430 0.593400
v -0.077727 -0.660181 0.622525
v -0.044813 -0.647410 0.641536
v -0.006915 -0.644067 0.647539
v 0.030196 -0.650657 0.639617
v 0.060872 -0.666179 0.618980
v 0.080441 -0.688268 0.588768
v 0.085926 -0.713561 0.553577
v 0.076489 -0.738210 0.518771
v 0.053570 -0.758461 0.489645
v 0.020655 -0.771230 0.470633
v -0.071297 -0.987357 0.594150
v -0.023763 -0.995799 0.584005
v -0.110587 -0.967477 0.620584
v -0.135652 -0.939184 0.659283
v -0.142677 -0.906785 0.704352
v -0.130591 -0.875216 0.748936
v -0.101234 -0.849279 0.786242
v -0.059076 -0.832923 0.810591
v -0.010536 -0.828640 0.818279
v 0.036998 -0.837081 0.808134
v 0.076288 -0.856962 0.781701
v 0.101353 -0.885255 0.743003
v 0.108378 -0.917651 0.697930
v 0.096292 -0.949223 0.653349
v 0.066935 -0.975160 0.616044
v 0.024777 -0.991516 0.591692
v -0.037099 -1.238444 0.898098
v -0.026371 -1.240349 0.895808
v -0.045966 -1.233957 0.904063
v -0.051623 -1.227572 0.912797
v -0.053209 -1.220260 0.922968
v -0.050481 -1.213135 0.933031
v -0.043856 -1.207282 0.941450
v -0.034341 -1.203590 0.946946
v -0.023386 -1.202623 0.948681
v -0.012658 -1.204529 0.946391
v -0.003791 -1.209016 0.940425
v 0.001866 -1.215401 0.931692
v 0.003451 -1.222712 0.921520
v 0.000723 -1.229838 0.911458
v -0.005902 -1.235691 0.903039
v -0.015416 -1.239383 0.897543
vn -0.4901 -0.8709 0.0361
vn -0.5029 -0.5771 -0.6434
vn -0.7984 -0.5697 0.1949
vn -0.8994 -0.2164 0.3798
vn -0.8200 0.0963 0.5642
vn -0.6285 0.3136 0.7118
vn -0.4091 0.4341 0.8026
vn -0.2178 0.5027 0.8366
vn -0.0036 0.5444 0.8388
vn 0.2137 0.5455 0.8104
vn 0.4758 0.5083 0.7178
vn 0.7691 0.3693 0.5217
vn 0.9646 0.0844 0.2500
vn 0.9621 -0.2716 0.0249
vn 0.7838 -0.6131 -0.0982
vn 0.6097 -0.7455 -0.2691
vn -0.6635 -0.7282 -0.1716
vn -0.3049 -0.7859 -0.5380
vn -0.7991 -0.6012 0.0044
vn -0.9415 -0.2112 0.2628
vn -0.8761 0.1628 0.4538
vn -0.6743 0.4427 0.5910
vn -0.4154 0.6031 0.6809
vn -0.1718 0.6556 0.7353
vn 0.0545 0.6632 0.7464
vn 0.2758 0.6535 0.7049
vn 0.5538 0.5752 0.6020
vn 0.8261 0.3609 0.4328
vn 0.9682 0.0335 0.2478
vn 0.9408 -0.3320 0.0685
vn 0.7302 -0.6697 -0.1353
vn 0.5590 -0.7874 -0.2598
vn -0.4443 -0.6640 -0.6014
vn -0.0458 -0.7957 -0.6040
vn -0.7683 -0.5314 -0.3568
vn -0.9553 -0.2937 -0.0349
vn -0.9727 -0.0135 0.2317
vn -0.8643 0.2558 0.4330
vn -0.6480 0.4898 0.5832
vn -0.3312 0.6556 0.6786
vn 0.0488 0.7070 0.7056
vn 0.4209 0.6223 0.6600
vn 0.7165 0.4295 0.5497
vn 0.9034 0.1778 0.3902
vn 0.9776 -0.0994 0.1853
vn 0.9231 -0.3765 -0.0786
vn 0.7011 -0.5967 -0.3905
vn 0.3551 -0.7000 -0.6196
vn -0.4650 -0.5024 -0.7290
vn -0.0447 -0.5703 -0.8203
vn -0.7803 -0.3654 -0.5075
vn -0.9557 -0.1898 -0.2250
vn -0.9977 0.0016 0.0683
vn -0.9165 0.1930 0.3504
vn -0.7089 0.3662 0.6028
vn -0.3741 0.4894 0.7877
vn 0.0455 0.5216 0.8520
vn 0.4559 0.4454 0.7706
vn 0.7672 0.2879 0.5732
vn 0.9446 0.0944 0.3144
vn 0.9941 -0.1039 0.0314
vn 0.9217 -0.2893 -0.2585
vn 0.7191 -0.4452 -0.5336
vn 0.3835 -0.5477 -0.7436
vn -0.4625 -0.4807 -0.7450
vn -0.0466 -0.5525 -0.8322
vn -0.7753 -0.3347 -0.5357
vn -0.9516 -0.1556 -0.2650
vn -0.9992 0.0299 0.0254
vn -0.9258 0.2091 0.3150
vn -0.7241 0.3687 0.5828
vn -0.3884 0.4817 0.7856
vn 0.0426 0.5102 0.8590
vn 0.4654 0.4379 0.7692
vn 0.7800 0.2916 0.5537
vn 0.9539 0.1127 0.2782
vn 0.9973 -0.0727 -0.0141
vn 0.9192 -0.2520 -0.3027
vn 0.7139 -0.4117 -0.5665
vn 0.3784 -0.5243 -0.7629
vn -0.4632 -0.5876 -0.6634
vn -0.0491 -0.6627 -0.7473
vn -0.7750 -0.4211 -0.4712
vn -0.9514 -0.2100 -0.2252
vn -0.9992 0.0138 0.0371
vn -0.9256 0.2344 0.2973
vn -0.7232 0.4354 0.5361
vn -0.3863 0.5836 0.7142
vn 0.0456 0.6311 0.7743
vn 0.4689 0.5544 0.6876
vn 0.7834 0.3836 0.4891
vn 0.9563 0.1692 0.2383
vn 0.9981 -0.0560 -0.0260
vn 0.9179 -0.2763 -0.2849
vn 0.7107 -0.4747 -0.5192
vn 0.3746 -0.6184 -0.6909
vn -0.4674 -0.5941 -0.6547
vn -0.0469 -0.6711 -0.7399
vn -0.7811 -0.4208 -0.4614
vn -0.9552 -0.2022 -0.2163
vn -0.9987 0.0283 0.0432
vn -0.9200 0.2541 0.2986
vn -0.7135 0.4579 0.5303
vn -0.3769 0.6062 0.7003
vn 0.0485 0.6533 0.7556
vn 0.4643 0.5780 0.6711
vn 0.7767 0.4087 0.4793
vn 0.9525 0.1932 0.2352
vn 0.9991 -0.0359 -0.0238
vn 0.9237 -0.2624 -0.2793
vn 0.7196 -0.4690 -0.5120
vn 0.3826 -0.6215 -0.6836
vn -0.4552 -0.3279 -0.8278
vn -0.0401 -0.3973 -0.9168
vn -0.7630 -0.1785 -0.6212
vn -0.9320 0.0100 -0.3622
vn -0.9730 0.2113 -0.0927
vn -0.8954 0.4123 0.1680
vn -0.6940 0.5975 0.4016
vn -0.3658 0.7341 0.5721
vn 0.0501 0.7756 0.6293
vn 0.4570 0.7001 0.5486
vn 0.7621 0.5378 0.3605
vn 0.9339 0.3378 0.1170
vn 0.9803 0.1322 -0.1466
vn 0.9087 -0.0641 -0.4124
vn 0.7118 -0.2375 -0.6610
vn 0.3829 -0.3613 -0.8502
vn -0.4409 -0.2619 -0.8585
vn -0.0383 -0.3273 -0.9441
vn -0.7449 -0.1225 -0.6558
vn -0.9164 0.0557 -0.3964
vn -0.9608 0.2486 -0.1228
vn -0.8852 0.4427 0.1429
vn -0.6852 0.6211 0.3804
vn -0.3602 0.7510 0.5534
vn 0.0498 0.7891 0.6122
vn 0.4514 0.7159 0.5326
vn 0.7548 0.5587 0.3436
vn 0.9263 0.3643 0.0966
vn 0.9711 0.1650 -0.1722
vn 0.8964 -0.0228 -0.4427
vn 0.6971 -0.1849 -0.6927
vn 0.3723 -0.2971 -0.8793
vn -0.4640 -0.5679 -0.6798
vn -0.0473 -0.6414 -0.7657
vn -0.7771 -0.4110 -0.4767
vn -0.9525 -0.2158 -0.2148
vn -0.9978 -0.0129 0.0655
vn -0.9210 0.1829 0.3441
vn -0.7164 0.3569 0.5995
vn -0.3811 0.4807 0.7898
vn 0.0442 0.5155 0.8557
vn 0.4609 0.4442 0.7682
vn 0.7742 0.2924 0.5614
vn 0.9497 0.1020 0.2962
vn 0.9950 -0.0991 0.0146
vn 0.9181 -0.2968 -0.2626
vn 0.7134 -0.4755 -0.5148
vn 0.3780 -0.6043 -0.7014
vn -0.3201 -0.9470 -0.0278
vn -0.0453 -0.9953 -0.0852
vn -0.5242 -0.8449 0.1063
vn -0.6373 -0.7192 0.2768
vn -0.6664 -0.5886 0.4576
vn -0.6169 -0.4622 0.6370
vn -0.4849 -0.3484 0.8022
vn -0.2662 -0.2661 0.9265
vn 0.0143 -0.2424 0.9701
vn 0.2892 -0.2902 0.9122
vn 0.4934 -0.3907 0.7771
vn 0.6065 -0.5151 0.6057
vn 0.6356 -0.6450 0.4243
vn 0.5861 -0.7722 0.2454
vn 0.4541 -0.8873 0.0812
vn 0.2353 -0.9710 -0.0420
vt 0.697568 0.531951
vt 0.672819 0.520450
vt 0.706575 0.521280
vt 0.677220 0.602345
vt 0.644126 0.612637
vt 0.642032 0.606140
vt 0.664097 0.583540
vt 0.659605 0.590822
vt 0.650753 0.585721
vt 0.675100 0.511393
vt 0.711791 0.509289
vt 0.653089 0.579297
vt 0.643707 0.579120
vt 0.712543 0.496926
vt 0.674711 0.502552
vt 0.647982 0.569387
vt 0.641476 0.561190
vt 0.650487 0.558393
vt 0.640207 0.570494
vt 0.724264 0.609530
vt 0.690121 0.626412
vt 0.688335 0.617770
vt 0.646663 0.552846
vt 0.660075 0.551215
vt 0.716297 0.599416
vt 0.683919 0.609666
vt 0.653959 0.545444
vt 0.672788 0.546621
vt 0.704995 0.591638
vt 0.661573 0.537803
vt 0.685840 0.540513
vt 0.691582 0.586658
vt 0.668822 0.596066
vt 0.668143 0.529392
vt 0.677490 0.584416
vt 0.628343 0.572184
vt 0.610485 0.580583
vt 0.609875 0.574815
vt 0.632145 0.542810
vt 0.639195 0.599471
vt 0.633253 0.535579
vt 0.635919 0.592726
vt 0.633685 0.528721
vt 0.632650 0.585950
vt 0.633301 0.522343
vt 0.629944 0.579130
vt 0.632020 0.516415
vt 0.628189 0.565032
vt 0.645527 0.624981
vt 0.645315 0.618901
vt 0.629134 0.557691
vt 0.630632 0.550236
vt 0.610891 0.586576
vt 0.509012 0.603247
vt 0.508612 0.598390
vt 0.610609 0.622220
vt 0.610698 0.616950
vt 0.607980 0.563179
vt 0.610850 0.611396
vt 0.606648 0.557087
vt 0.611013 0.605454
vt 0.605113 0.550931
vt 0.611118 0.599199
vt 0.603482 0.544924
vt 0.611095 0.592828
vt 0.601872 0.539234
vt 0.600367 0.533916
vt 0.598992 0.528855
vt 0.609053 0.569076
vt 0.504690 0.570652
vt 0.418391 0.590904
vt 0.417696 0.586960
vt 0.501942 0.556415
vt 0.508166 0.593785
vt 0.501059 0.552074
vt 0.507070 0.584974
vt 0.507660 0.589374
vt 0.510409 0.627222
vt 0.510200 0.622786
vt 0.506374 0.580406
vt 0.509962 0.618168
vt 0.505573 0.575606
vt 0.509688 0.613305
vt 0.509371 0.608275
vt 0.503766 0.565708
vt 0.502842 0.560938
vt 0.422116 0.632014
vt 0.350064 0.629593
vt 0.422011 0.628462
vt 0.421419 0.616885
vt 0.416954 0.583025
vt 0.421126 0.612886
vt 0.416196 0.579225
vt 0.420794 0.609025
vt 0.415436 0.575622
vt 0.420428 0.605365
vt 0.414669 0.572164
vt 0.420020 0.601858
vt 0.419556 0.598358
vt 0.419015 0.594723
vt 0.421862 0.624771
vt 0.421666 0.620892
vt 0.349705 0.619270
vt 0.306461 0.620922
vt 0.349502 0.616715
vt 0.348690 0.609659
vt 0.348325 0.607257
vt 0.350046 0.627147
vt 0.347896 0.604733
vt 0.349982 0.624575
vt 0.347405 0.602130
vt 0.349868 0.621920
vt 0.346867 0.599536
vt 0.346300 0.597036
vt 0.345719 0.594670
vt 0.349266 0.614293
vt 0.345119 0.592406
vt 0.348999 0.611973
vt 0.304039 0.606746
vt 0.297764 0.608799
vt 0.297406 0.607345
vt 0.304675 0.609334
vt 0.304353 0.608002
vt 0.306282 0.619483
vt 0.306098 0.618085
vt 0.305934 0.616683
vt 0.350038 0.631947
vt 0.306879 0.628305
vt 0.305754 0.615244
vt 0.306864 0.626928
vt 0.305547 0.613755
vt 0.306828 0.625465
vt 0.305303 0.612246
vt 0.306759 0.623942
vt 0.304998 0.610757
vt 0.306625 0.622417
vt 0.299304 0.614877
vt 0.292598 0.615386
vt 0.299031 0.613332
vt 0.299651 0.617698
vt 0.299969 0.620262
vt 0.299779 0.618985
vt 0.306883 0.629604
vt 0.300324 0.629379
vt 0.299502 0.616339
vt 0.300368 0.627848
vt 0.300421 0.626263
vt 0.300439 0.624649
vt 0.298619 0.611781
vt 0.300324 0.623082
vt 0.298181 0.610265
vt 0.300159 0.621615
vt 0.292676 0.628589
vt 0.283691 0.621276
vt 0.283938 0.621441
vt 0.293728 0.624468
vt 0.292013 0.614139
vt 0.293870 0.623166
vt 0.291335 0.612904
vt 0.293923 0.621960
vt 0.290575 0.611703
vt 0.293898 0.620862
vt 0.289714 0.610515
vt 0.293644 0.618819
vt 0.293801 0.619836
vt 0.300335 0.630883
vt 0.293399 0.617752
vt 0.293116 0.627217
vt 0.293054 0.616604
vt 0.293468 0.625836
vt 0.284170 0.621529
vt 0.284089 0.620897
vt 0.284792 0.620893
vt 0.284887 0.620988
vt 0.284655 0.620825
vt 0.284384 0.621550
vt 0.284485 0.620801
vt 0.284573 0.621513
vt 0.284292 0.620817
vt 0.284732 0.621440
vt 0.284848 0.621337
vt 0.283893 0.621048
vt 0.284915 0.621220
vt 0.284932 0.621100
vt 0.728012 0.621251
vt 0.292135 0.629977
s 1
usemtl Material.001
f 6/1/6 23/2/23 7/3/7
f 28/4/28 43/5/43 44/6/44
f 15/7/15 30/8/30 31/9/31
f 7/3/7 24/10/24 8/11/8
f 16/12/16 31/9/31 32/13/32
f 9/14/9 24/10/24 25/15/25
f 2/16/2 17/17/17 1/18/1
f 16/12/16 18/19/18 2/16/2
f 10/20/10 25/21/25 26/22/26
f 1/18/1 19/23/19 3/24/3
f 11/25/11 26/22/26 27/26/27
f 3/24/3 20/27/20 4/28/4
f 12/29/12 27/26/27 28/4/28
f 4/28/4 21/30/21 5/31/5
f 13/32/13 28/4/28 29/33/29
f 5/31/5 22/34/22 6/1/6
f 14/35/14 29/33/29 30/8/30
f 34/36/34 64/37/64 50/38/50
f 20/27/20 37/39/37 21/30/21
f 29/33/29 44/6/44 45/40/45
f 21/30/21 38/41/38 22/34/22
f 30/8/30 45/40/45 46/42/46
f 22/34/22 39/43/39 23/2/23
f 31/9/31 46/42/46 47/44/47
f 23/2/23 40/45/40 24/10/24
f 32/13/32 47/44/47 48/46/48
f 24/10/24 41/47/41 25/15/25
f 17/17/17 34/36/34 33/48/33
f 32/13/32 34/36/34 18/19/18
f 26/22/26 41/49/41 42/50/42
f 17/17/17 35/51/35 19/23/19
f 27/26/27 42/50/42 43/5/43
f 19/23/19 36/52/36 20/27/20
f 63/53/63 78/54/78 79/55/79
f 42/50/42 57/56/57 58/57/58
f 33/48/33 51/58/51 35/51/35
f 43/5/43 58/57/58 59/59/59
f 35/51/35 52/60/52 36/52/36
f 44/6/44 59/59/59 60/61/60
f 36/52/36 53/62/53 37/39/37
f 45/40/45 60/61/60 61/63/61
f 37/39/37 54/64/54 38/41/38
f 46/42/46 61/63/61 62/65/62
f 38/41/38 55/66/55 39/43/39
f 47/44/47 62/65/62 63/53/63
f 39/43/39 56/67/56 40/45/40
f 48/46/48 63/53/63 64/37/64
f 40/45/40 57/68/57 41/47/41
f 34/36/34 49/69/49 33/48/33
f 69/70/69 84/71/84 85/72/85
f 55/66/55 72/73/72 56/67/56
f 64/37/64 79/55/79 80/74/80
f 56/67/56 73/75/73 57/68/57
f 50/38/50 65/76/65 49/69/49
f 50/38/50 80/74/80 66/77/66
f 58/57/58 73/78/73 74/79/74
f 49/69/49 67/80/67 51/58/51
f 59/59/59 74/79/74 75/81/75
f 51/58/51 68/82/68 52/60/52
f 60/61/60 75/81/75 76/83/76
f 52/60/52 69/70/69 53/62/53
f 61/63/61 76/83/76 77/84/77
f 53/62/53 70/85/70 54/64/54
f 62/65/62 77/84/77 78/54/78
f 54/64/54 71/86/71 55/66/55
f 89/87/89 106/88/106 90/89/90
f 76/83/76 93/90/93 77/84/77
f 70/85/70 85/72/85 86/91/86
f 77/84/77 94/92/94 78/54/78
f 71/86/71 86/91/86 87/93/87
f 78/54/78 95/94/95 79/55/79
f 72/73/72 87/93/87 88/95/88
f 79/55/79 96/96/96 80/74/80
f 73/75/73 88/95/88 89/97/89
f 65/76/65 82/98/82 81/99/81
f 80/74/80 82/98/82 66/77/66
f 73/78/73 90/89/90 74/79/74
f 67/80/67 81/99/81 83/100/83
f 74/79/74 91/101/91 75/81/75
f 68/82/68 83/100/83 84/71/84
f 75/81/75 92/102/92 76/83/76
f 110/103/110 127/104/127 111/105/111
f 83/100/83 97/106/97 99/107/99
f 90/89/90 107/108/107 91/101/91
f 84/71/84 99/107/99 100/109/100
f 91/101/91 108/110/108 92/102/92
f 85/72/85 100/109/100 101/111/101
f 92/102/92 109/112/109 93/90/93
f 86/91/86 101/111/101 102/113/102
f 93/90/93 110/103/110 94/92/94
f 87/93/87 102/113/102 103/114/103
f 94/92/94 111/105/111 95/94/95
f 88/95/88 103/114/103 104/115/104
f 95/94/95 112/116/112 96/96/96
f 89/97/89 104/115/104 105/117/105
f 81/99/81 98/118/98 97/106/97
f 96/96/96 98/118/98 82/98/82
f 121/119/121 136/120/136 137/121/137
f 104/115/104 119/122/119 120/123/120
f 111/105/111 128/124/128 112/116/112
f 105/117/105 120/123/120 121/119/121
f 97/106/97 114/125/114 113/126/113
f 112/116/112 114/125/114 98/118/98
f 105/127/105 122/128/122 106/88/106
f 99/107/99 113/126/113 115/129/115
f 106/88/106 123/130/123 107/108/107
f 100/109/100 115/129/115 116/131/116
f 107/108/107 124/132/124 108/110/108
f 101/111/101 116/131/116 117/133/117
f 108/110/108 125/134/125 109/112/109
f 102/113/102 117/133/117 118/135/118
f 109/112/109 126/136/126 110/103/110
f 103/114/103 118/135/118 119/122/119
f 132/137/132 149/138/149 133/139/133
f 114/125/114 129/140/129 113/126/113
f 114/125/114 144/141/144 130/142/130
f 121/143/121 138/144/138 122/128/122
f 113/126/113 131/145/131 115/129/115
f 122/128/122 139/146/139 123/130/123
f 115/129/115 132/137/132 116/131/116
f 123/130/123 140/147/140 124/132/124
f 116/131/116 133/139/133 117/133/117
f 124/132/124 141/148/141 125/134/125
f 118/135/118 133/139/133 134/149/134
f 126/136/126 141/148/141 142/150/142
f 119/122/119 134/149/134 135/151/135
f 127/104/127 142/150/142 143/152/143
f 120/123/120 135/151/135 136/120/136
f 128/124/128 143/152/143 144/141/144
f 154/153/154 169/154/169 170/155/170
f 140/147/140 157/156/157 141/148/141
f 134/149/134 149/138/149 150/157/150
f 142/150/142 157/156/157 158/158/158
f 135/151/135 150/157/150 151/159/151
f 143/152/143 158/158/158 159/160/159
f 136/120/136 151/159/151 152/161/152
f 144/141/144 159/160/159 160/162/160
f 137/121/137 152/161/152 153/163/153
f 130/142/130 145/164/145 129/140/129
f 130/142/130 160/162/160 146/165/146
f 137/166/137 154/153/154 138/144/138
f 129/140/129 147/167/147 131/145/131
f 138/144/138 155/168/155 139/146/139
f 131/145/131 148/169/148 132/137/132
f 139/146/139 156/170/156 140/147/140
f 171/171/171 167/172/167 163/173/163
f 147/167/147 161/174/161 163/173/163
f 155/168/155 170/155/170 171/171/171
f 148/169/148 163/173/163 164/175/164
f 156/170/156 171/171/171 172/176/172
f 149/138/149 164/175/164 165/177/165
f 157/156/157 172/176/172 173/178/173
f 149/138/149 166/179/166 150/157/150
f 157/156/157 174/180/174 158/158/158
f 150/157/150 167/172/167 151/159/151
f 158/158/158 175/181/175 159/160/159
f 151/159/151 168/182/168 152/161/152
f 159/160/159 176/183/176 160/162/160
f 152/161/152 169/154/169 153/163/153
f 145/164/145 162/184/162 161/174/161
f 160/162/160 162/184/162 146/165/146
f 6/1/6 22/34/22 23/2/23
f 28/4/28 27/26/27 43/5/43
f 15/7/15 14/35/14 30/8/30
f 7/3/7 23/2/23 24/10/24
f 16/12/16 15/7/15 31/9/31
f 9/14/9 8/11/8 24/10/24
f 2/16/2 18/19/18 17/17/17
f 16/12/16 32/13/32 18/19/18
f 10/20/10 9/185/9 25/21/25
f 1/18/1 17/17/17 19/23/19
f 11/25/11 10/20/10 26/22/26
f 3/24/3 19/23/19 20/27/20
f 12/29/12 11/25/11 27/26/27
f 4/28/4 20/27/20 21/30/21
f 13/32/13 12/29/12 28/4/28
f 5/31/5 21/30/21 22/34/22
f 14/35/14 13/32/13 29/33/29
f 34/36/34 48/46/48 64/37/64
f 20/27/20 36/52/36 37/39/37
f 29/33/29 28/4/28 44/6/44
f 21/30/21 37/39/37 38/41/38
f 30/8/30 29/33/29 45/40/45
f 22/34/22 38/41/38 39/43/39
f 31/9/31 30/8/30 46/42/46
f 23/2/23 39/43/39 40/45/40
f 32/13/32 31/9/31 47/44/47
f 24/10/24 40/45/40 41/47/41
f 17/17/17 18/19/18 34/36/34
f 32/13/32 48/46/48 34/36/34
f 26/22/26 25/21/25 41/49/41
f 17/17/17 33/48/33 35/51/35
f 27/26/27 26/22/26 42/50/42
f 19/23/19 35/51/35 36/52/36
f 63/53/63 62/65/62 78/54/78
f 42/50/42 41/49/41 57/56/57
f 33/48/33 49/69/49 51/58/51
f 43/5/43 42/50/42 58/57/58
f 35/51/35 51/58/51 52/60/52
f 44/6/44 43/5/43 59/59/59
f 36/52/36 52/60/52 53/62/53
f 45/40/45 44/6/44 60/61/60
f 37/39/37 53/62/53 54/64/54
f 46/42/46 45/40/45 61/63/61
f 38/41/38 54/64/54 55/66/55
f 47/44/47 46/42/46 62/65/62
f 39/43/39 55/66/55 56/67/56
f 48/46/48 47/44/47 63/53/63
f 40/45/40 56/67/56 57/68/57
f 34/36/34 50/38/50 49/69/49
f 69/70/69 68/82/68 84/71/84
f 55/66/55 71/86/71 72/73/72
f 64/37/64 63/53/63 79/55/79
f 56/67/56 72/73/72 73/75/73
f 50/38/50 66/77/66 65/76/65
f 50/38/50 64/37/64 80/74/80
f 58/57/58 57/56/57 73/78/73
f 49/69/49 65/76/65 67/80/67
f 59/59/59 58/57/58 74/79/74
f 51/58/51 67/80/67 68/82/68
f 60/61/60 59/59/59 75/81/75
f 52/60/52 68/82/68 69/70/69
f 61/63/61 60/61/60 76/83/76
f 53/62/53 69/70/69 70/85/70
f 62/65/62 61/63/61 77/84/77
f 54/64/54 70/85/70 71/86/71
f 89/87/89 105/127/105 106/88/106
f 76/83/76 92/102/92 93/90/93
f 70/85/70 69/70/69 85/72/85
f 77/84/77 93/90/93 94/92/94
f 71/86/71 70/85/70 86/91/86
f 78/54/78 94/92/94 95/94/95
f 72/73/72 71/86/71 87/93/87
f 79/55/79 95/94/95 96/96/96
f 73/75/73 72/73/72 88/95/88
f 65/76/65 66/77/66 82/98/82
f 80/74/80 96/96/96 82/98/82
f 73/78/73 89/87/89 90/89/90
f 67/80/67 65/76/65 81/99/81
f 74/79/74 90/89/90 91/101/91
f 68/82/68 67/80/67 83/100/83
f 75/81/75 91/101/91 92/102/92
f 110/103/110 126/136/126 127/104/127
f 83/100/83 81/99/81 97/106/97
f 90/89/90 106/88/106 107/108/107
f 84/71/84 83/100/83 99/107/99
f 91/101/91 107/108/107 108/110/108
f 85/72/85 84/71/84 100/109/100
f 92/102/92 108/110/108 109/112/109
f 86/91/86 85/72/85 101/111/101
f 93/90/93 109/112/109 110/103/110
f 87/93/87 86/91/86 102/113/102
f 94/92/94 110/103/110 111/105/111
f 88/95/88 87/93/87 103/114/103
f 95/94/95 111/105/111 112/116/112
f 89/97/89 88/95/88 104/115/104
f 81/99/81 82/98/82 98/118/98
f 96/96/96 112/116/112 98/118/98
f 121/119/121 120/123/120 136/120/136
f 104/115/104 103/114/103 119/122/119
f 111/105/111 127/104/127 128/124/128
f 105/117/105 104/115/104 120/123/120
f 97/106/97 98/118/98 114/125/114
f 112/116/112 128/124/128 114/125/114
f 105/127/105 121/143/121 122/128/122
f 99/107/99 97/106/97 113/126/113
f 106/88/106 122/128/122 123/130/123
f 100/109/100 99/107/99 115/129/115
f 107/108/107 123/130/123 124/132/124
f 101/111/101 100/109/100 116/131/116
f 108/110/108 124/132/124 125/134/125
f 102/113/102 101/111/101 117/133/117
f 109/112/109 125/134/125 126/136/126
f 103/114/103 102/113/102 118/135/118
f 132/137/132 148/169/148 149/138/149
f 114/125/114 130/142/130 129/140/129
f 114/125/114 128/124/128 144/141/144
f 121/143/121 137/166/137 138/144/138
f 113/126/113 129/140/129 131/145/131
f 122/128/122 138/144/138 139/146/139
f 115/129/115 131/145/131 132/137/132
f 123/130/123 139/146/139 140/147/140
f 116/131/116 132/137/132 133/139/133
f 124/132/124 140/147/140 141/148/141
f 118/135/118 117/133/117 133/139/133
f 126/136/126 125/134/125 141/148/141
f 119/122/119 118/135/118 134/149/134
f 127/104/127 126/136/126 142/150/142
f 120/123/120 119/122/119 135/151/135
f 128/124/128 127/104/127 143/152/143
f 154/153/154 153/186/153 169/154/169
f 140/147/140 156/170/156 157/156/157
f 134/149/134 133/139/133 149/138/149
f 142/150/142 141/148/141 157/156/157
f 135/151/135 134/149/134 150/157/150
f 143/152/143 142/150/142 158/158/158
f 136/120/136 135/151/135 151/159/151
f 144/141/144 143/152/143 159/160/159
f 137/121/137 136/120/136 152/161/152
f 130/142/130 146/165/146 145/164/145
f 130/142/130 144/141/144 160/162/160
f 137/166/137 153/186/153 154/153/154
f 129/140/129 145/164/145 147/167/147
f 138/144/138 154/153/154 155/168/155
f 131/145/131 147/167/147 148/169/148
f 139/146/139 155/168/155 156/170/156
f 163/173/163 161/174/161 162/184/162
f 162/184/162 176/183/176 175/181/175
f 175/181/175 174/180/174 173/178/173
f 173/178/173 172/176/172 171/171/171
f 171/171/171 170/155/170 169/154/169
f 169/154/169 168/182/168 167/172/167
f 167/172/167 166/179/166 165/177/165
f 165/177/165 164/175/164 163/173/163
f 163/173/163 162/184/162 175/181/175
f 175/181/175 173/178/173 171/171/171
f 171/171/171 169/154/169 167/172/167
f 167/172/167 165/177/165 163/173/163
f 163/173/163 175/181/175 171/171/171
f 147/167/147 145/164/145 161/174/161
f 155/168/155 154/153/154 170/155/170
f 148/169/148 147/167/147 163/173/163
f 156/170/156 155/168/155 171/171/171
f 149/138/149 148/169/148 164/175/164
f 157/156/157 156/170/156 172/176/172
f 149/138/149 165/177/165 166/179/166
f 157/156/157 173/178/173 174/180/174
f 150/157/150 166/179/166 167/172/167
f 158/158/158 174/180/174 175/181/175
f 151/159/151 167/172/167 168/182/168
f 159/160/159 175/181/175 176/183/176
f 152/161/152 168/182/168 169/154/169
f 145/164/145 146/165/146 162/184/162
f 160/162/160 176/183/176 162/184/162
