# Blender 4.5.3 LTS
# www.blender.org
mtllib jB_rightleg.mtl
o 1.001
v -0.135238 -1.326661 -0.339754
v -0.007161 -1.327494 -0.381361
v -0.214394 -1.324480 -0.230827
v -0.214394 -1.321785 -0.096186
v -0.135238 -1.319604 0.012742
v -0.007161 -1.318771 0.054348
v 0.120917 -1.319604 0.012742
v 0.200073 -1.321785 -0.096186
v 0.200073 -1.324480 -0.230827
v 0.120916 -1.326661 -0.339754
v -0.149234 -1.304573 -0.360726
v -0.007161 -1.305496 -0.406879
v -0.237040 -1.302153 -0.239896
v -0.237040 -1.299162 -0.090542
v -0.149234 -1.296743 0.030289
v -0.007161 -1.295819 0.076442
v 0.134912 -1.296743 0.030288
v 0.222718 -1.299162 -0.090542
v 0.222718 -1.302153 -0.239896
v 0.134912 -1.304573 -0.360726
v -0.113420 -1.137317 -0.222082
v -0.007161 -1.123917 -0.253901
v -0.179092 -1.172399 -0.138778
v -0.179092 -1.215763 -0.035809
v -0.113420 -1.250844 0.047495
v -0.007161 -1.264244 0.079314
v 0.099098 -1.250844 0.047495
v 0.164770 -1.215763 -0.035809
v 0.164770 -1.172399 -0.138778
v 0.099098 -1.137317 -0.222082
v -0.102108 -1.116596 -0.212458
v -0.007161 -1.105635 -0.241296
v -0.160788 -1.145289 -0.136961
v -0.160788 -1.180756 -0.043641
v -0.102108 -1.209450 0.031857
v -0.007161 -1.220411 0.060694
v 0.087786 -1.209450 0.031857
v 0.146466 -1.180756 -0.043641
v 0.146466 -1.145289 -0.136961
v 0.087786 -1.116596 -0.212459
v -0.072785 -1.064382 -0.184062
v -0.007161 -1.057992 -0.204404
v -0.113343 -1.081111 -0.130804
v -0.113343 -1.101790 -0.064974
v -0.072785 -1.118518 -0.011717
v -0.007161 -1.124909 0.008626
v 0.058463 -1.118518 -0.011717
v 0.099021 -1.101790 -0.064974
v 0.099021 -1.081111 -0.130804
v 0.058463 -1.064382 -0.184062
v -0.062955 -0.973365 -0.147227
v -0.007161 -0.967932 -0.164522
v -0.097438 -0.987588 -0.101947
v -0.097438 -1.005169 -0.045978
v -0.062955 -1.019392 -0.000697
v -0.007161 -1.024826 0.016598
v 0.048633 -1.019392 -0.000697
v 0.083116 -1.005169 -0.045978
v 0.083116 -0.987588 -0.101947
v 0.048633 -0.973365 -0.147227
v -0.070214 -0.887159 -0.130339
v -0.007161 -0.882573 -0.150307
v -0.109184 -0.899164 -0.078064
v -0.109184 -0.914004 -0.013448
v -0.070214 -0.926009 0.038829
v -0.007161 -0.930595 0.058796
v 0.055893 -0.926009 0.038829
v 0.094862 -0.914004 -0.013448
v 0.094862 -0.899164 -0.078064
v 0.055893 -0.887159 -0.130339
v -0.088122 -0.810435 -0.138009
v -0.007161 -0.804547 -0.163648
v -0.138159 -0.825850 -0.070887
v -0.138159 -0.844904 0.012081
v -0.088122 -0.860319 0.079204
v -0.007161 -0.866207 0.104842
v 0.073800 -0.860319 0.079204
v 0.123837 -0.844904 0.012081
v 0.123837 -0.825850 -0.070887
v 0.073800 -0.810435 -0.138009
v -0.086923 -0.621417 -0.113536
v -0.007161 -0.615616 -0.138794
v -0.136218 -0.636603 -0.047408
v -0.136218 -0.655375 0.034330
v -0.086923 -0.670561 0.100458
v -0.007161 -0.676362 0.125717
v 0.072601 -0.670561 0.100458
v 0.121896 -0.655375 0.034330
v 0.121896 -0.636603 -0.047408
v 0.072601 -0.621417 -0.113536
v -0.068933 0.041861 0.003274
v -0.007161 0.046353 -0.016288
v -0.107111 0.030099 0.054488
v -0.107111 0.015562 0.117791
v -0.068933 0.003800 0.169005
v -0.007161 -0.000693 0.188567
v 0.054612 0.003800 0.169005
v 0.092789 0.015562 0.117791
v 0.092789 0.030099 0.054488
v 0.054611 0.041861 0.003274
v -0.089609 0.633594 0.043800
v -0.007161 0.638580 0.017478
v -0.140565 0.620541 0.112709
v -0.140565 0.604408 0.197885
v -0.089609 0.591355 0.266795
v -0.007161 0.586370 0.293116
v 0.075287 0.591355 0.266795
v 0.126243 0.604408 0.197885
v 0.126243 0.620541 0.112709
v 0.075287 0.633594 0.043800
v -0.118311 1.106004 0.005593
v -0.007161 1.106593 -0.044381
v -0.187006 1.104459 0.136428
v -0.187006 1.102550 0.298148
v -0.118311 1.101005 0.428983
v -0.007161 1.100415 0.478957
v 0.103990 1.101006 0.428983
v 0.172684 1.102550 0.298148
v 0.172684 1.104459 0.136428
v 0.103990 1.106004 0.005593
v -0.119393 1.512388 -0.091189
v -0.007161 1.512946 -0.138494
v -0.188757 1.510926 0.032655
v -0.188757 1.509119 0.185736
v -0.119393 1.507657 0.309581
v -0.007161 1.507098 0.356885
v 0.105072 1.507657 0.309581
v 0.174436 1.509119 0.185736
v 0.174436 1.510926 0.032655
v 0.105072 1.512388 -0.091189
v -0.157876 2.143993 -0.256465
v -0.007161 2.158501 -0.319494
v -0.251022 2.106008 -0.091456
v -0.251022 2.059056 0.112507
v -0.157876 2.021070 0.277516
v -0.007161 2.006562 0.340544
v 0.143554 2.021070 0.277516
v 0.236701 2.059056 0.112507
v 0.236701 2.106008 -0.091456
v 0.143554 2.143993 -0.256465
v -0.198217 2.325362 -0.339567
v -0.007161 2.305991 -0.437524
v -0.254804 2.357882 -0.175098
v -0.254804 2.456940 0.325857
v -0.198217 2.489458 0.490328
v -0.007161 2.508828 0.588283
v 0.183896 2.489458 0.490328
v 0.301975 2.438751 0.233876
v 0.301975 2.376070 -0.083117
v 0.075630 2.479666 -0.415895
v 0.190432 2.915455 0.374143
v 0.045698 2.798761 0.371597
v 0.312550 2.860783 0.097639
v 0.312550 2.793201 -0.244141
v 0.312550 3.017172 0.051071
v -0.114382 2.639462 0.486362
vn -0.2482 -0.9145 -0.3195
vn -0.0000 -0.9172 -0.3984
vn -0.4061 -0.9072 -0.1098
vn -0.4116 -0.8979 0.1559
vn -0.2571 -0.8902 0.3761
vn -0.0000 -0.8872 0.4614
vn 0.2571 -0.8902 0.3761
vn 0.4116 -0.8979 0.1559
vn 0.4061 -0.9072 -0.1098
vn 0.2482 -0.9145 -0.3195
vn -0.5715 -0.0834 -0.8164
vn -0.0000 -0.0727 -0.9974
vn -0.9353 -0.1193 -0.3332
vn -0.9453 -0.1835 0.2696
vn -0.5981 -0.2813 0.7505
vn -0.0000 -0.3950 0.9187
vn 0.5981 -0.2813 0.7505
vn 0.9453 -0.1835 0.2696
vn 0.9353 -0.1193 -0.3332
vn 0.5715 -0.0834 -0.8164
vn -0.5601 0.6083 -0.5623
vn -0.0000 0.6192 -0.7852
vn -0.8406 0.5386 -0.0576
vn -0.7864 0.3963 0.4739
vn -0.4472 0.2104 0.8693
vn -0.0000 0.1312 0.9914
vn 0.4472 0.2104 0.8693
vn 0.7864 0.3963 0.4739
vn 0.8406 0.5386 -0.0576
vn 0.5601 0.6083 -0.5623
vn -0.5397 0.5930 -0.5976
vn -0.0000 0.5879 -0.8090
vn -0.8137 0.5746 -0.0876
vn -0.7375 0.5155 0.4363
vn -0.4214 0.4555 0.7842
vn -0.0000 0.4313 0.9022
vn 0.4214 0.4555 0.7842
vn 0.7375 0.5155 0.4363
vn 0.8137 0.5746 -0.0876
vn 0.5397 0.5930 -0.5976
vn -0.5459 0.4983 -0.6736
vn -0.0000 0.5172 -0.8559
vn -0.8771 0.4406 -0.1912
vn -0.8538 0.3538 0.3819
vn -0.5129 0.2737 0.8136
vn -0.0000 0.2412 0.9705
vn 0.5129 0.2737 0.8136
vn 0.8538 0.3538 0.3819
vn 0.8771 0.4406 -0.1912
vn 0.5459 0.4983 -0.6736
vn -0.5850 0.2355 -0.7761
vn -0.0000 0.2865 -0.9581
vn -0.9495 0.1018 -0.2969
vn -0.9520 -0.0632 0.2994
vn -0.5891 -0.1961 0.7839
vn -0.0000 -0.2466 0.9691
vn 0.5891 -0.1961 0.7839
vn 0.9520 -0.0632 0.2994
vn 0.9495 0.1018 -0.2969
vn 0.5850 0.2355 -0.7761
vn -0.5738 -0.0582 -0.8170
vn -0.0000 -0.0094 -1.0000
vn -0.9211 -0.1842 -0.3429
vn -0.9124 -0.3365 0.2331
vn -0.5595 -0.4572 0.6913
vn -0.0000 -0.5028 0.8644
vn 0.5595 -0.4572 0.6913
vn 0.9124 -0.3365 0.2331
vn 0.9211 -0.1842 -0.3429
vn 0.5738 -0.0582 -0.8170
vn -0.5779 -0.0444 -0.8149
vn -0.0000 -0.0124 -0.9999
vn -0.9352 -0.1284 -0.3300
vn -0.9345 -0.2331 0.2691
vn -0.5768 -0.3184 0.7523
vn -0.0000 -0.3511 0.9363
vn 0.5768 -0.3184 0.7523
vn 0.9345 -0.2331 0.2691
vn 0.9352 -0.1284 -0.3300
vn 0.5779 -0.0444 -0.8149
vn -0.5865 0.1320 -0.7991
vn -0.0000 0.1566 -0.9877
vn -0.9506 0.0674 -0.3032
vn -0.9501 -0.0125 0.3115
vn -0.5858 -0.0768 0.8068
vn -0.0000 -0.1012 0.9949
vn 0.5858 -0.0768 0.8068
vn 0.9501 -0.0125 0.3115
vn 0.9506 0.0674 -0.3032
vn 0.5865 0.1320 -0.7991
vn -0.5869 0.0948 -0.8041
vn -0.0000 0.1185 -0.9930
vn -0.9511 0.0321 -0.3072
vn -0.9502 -0.0461 0.3081
vn -0.5855 -0.1093 0.8033
vn -0.0000 -0.1333 0.9911
vn 0.5855 -0.1093 0.8033
vn 0.9502 -0.0461 0.3081
vn 0.9511 0.0321 -0.3072
vn 0.5869 0.0948 -0.8041
vn -0.5920 -0.0230 -0.8056
vn -0.0000 -0.0270 -0.9996
vn -0.9468 -0.0492 -0.3180
vn -0.9502 -0.1213 0.2871
vn -0.5968 -0.2067 0.7753
vn -0.0000 -0.2505 0.9681
vn 0.5968 -0.2067 0.7753
vn 0.9502 -0.1213 0.2871
vn 0.9468 -0.0492 -0.3180
vn 0.5920 -0.0230 -0.8056
vn -0.6860 -0.1422 -0.7136
vn -0.0000 -0.1841 -0.9829
vn -0.9725 -0.0738 -0.2208
vn -0.9609 -0.0367 0.2745
vn -0.6565 -0.0274 0.7539
vn -0.0000 -0.0265 0.9996
vn 0.6565 -0.0274 0.7539
vn 0.9609 -0.0367 0.2745
vn 0.9725 -0.0738 -0.2208
vn 0.6860 -0.1422 -0.7136
vn -0.6504 -0.2062 -0.7311
vn -0.0000 -0.2521 -0.9677
vn -0.9600 -0.1131 -0.2561
vn -0.9698 -0.0093 0.2439
vn -0.6720 0.1022 0.7335
vn -0.0000 0.1640 0.9865
vn 0.6720 0.1022 0.7335
vn 0.9698 -0.0093 0.2439
vn 0.9600 -0.1131 -0.2561
vn 0.6504 -0.2062 -0.7311
vn -0.6377 -0.3022 -0.7085
vn -0.0344 -0.4625 -0.8859
vn -0.9579 -0.1187 -0.2613
vn -0.9779 -0.0982 0.1845
vn -0.7007 -0.1771 0.6911
vn -0.0000 -0.2113 0.9774
vn 0.6953 -0.1881 0.6936
vn 0.9663 -0.1691 0.1940
vn 0.9325 -0.1914 -0.3062
vn 0.6566 -0.2499 -0.7116
vn -0.6883 -0.4563 -0.5639
vn 0.2302 -0.4733 -0.8503
vn -0.9667 -0.1505 -0.2072
vn -0.9453 -0.1787 0.2729
vn -0.5968 -0.1940 0.7786
vn 0.0296 0.0511 0.9983
vn 0.6569 -0.0251 0.7536
vn 0.9593 -0.1014 0.2636
vn 0.9545 -0.1501 -0.2578
vn 0.7452 -0.1997 -0.6362
vn 0.7052 0.1848 0.6845
vn -0.0565 0.3869 0.9204
vn 0.9795 0.0482 0.1956
vn 0.9706 -0.1041 -0.2171
vn 0.9826 0.0531 0.1782
vn -0.2060 0.4913 0.8463
vt 0.475840 0.906199
vt 0.474763 0.912876
vt 0.465078 0.911379
vt 0.470269 0.905014
vt 0.475232 0.898702
vt 0.473044 0.904630
vt 0.473035 0.905177
vt 0.470551 0.905793
vt 0.477030 0.907127
vt 0.476709 0.907325
vt 0.477114 0.911371
vt 0.476645 0.911077
vt 0.463111 0.909700
vt 0.474664 0.905478
vt 0.476050 0.905906
vt 0.477108 0.908996
vt 0.471055 0.914724
vt 0.471159 0.913520
vt 0.474785 0.905093
vt 0.477553 0.908973
vt 0.475074 0.913605
vt 0.478594 0.912054
vt 0.476466 0.913843
vt 0.477619 0.911623
vt 0.478621 0.905061
vt 0.470541 0.896233
vt 0.477708 0.901980
vt 0.478278 0.909637
vt 0.471619 0.923425
vt 0.464139 0.913204
vt 0.478664 0.907572
vt 0.474677 0.917077
vt 0.471079 0.888258
vt 0.471516 0.895161
vt 0.465332 0.892033
vt 0.463352 0.893659
vt 0.479312 0.904524
vt 0.475869 0.918459
vt 0.478276 0.901306
vt 0.479185 0.909684
vt 0.477477 0.914699
vt 0.479483 0.907292
vt 0.480374 0.899148
vt 0.487595 0.900354
vt 0.481867 0.902603
vt 0.482941 0.913186
vt 0.480748 0.921884
vt 0.473604 0.924993
vt 0.475823 0.897962
vt 0.483038 0.909569
vt 0.481989 0.917085
vt 0.474963 0.892300
vt 0.482718 0.906077
vt 0.496187 0.908190
vt 0.489356 0.913533
vt 0.489150 0.909056
vt 0.488685 0.923176
vt 0.479887 0.927696
vt 0.478039 0.895807
vt 0.486048 0.896039
vt 0.489080 0.918163
vt 0.481285 0.887361
vt 0.488598 0.904685
vt 0.478312 0.883090
vt 0.502733 0.924047
vt 0.496089 0.929666
vt 0.496825 0.923797
vt 0.488244 0.928522
vt 0.490127 0.888134
vt 0.483894 0.891761
vt 0.495418 0.903284
vt 0.494083 0.898351
vt 0.496900 0.918302
vt 0.487601 0.882921
vt 0.492337 0.893292
vt 0.500331 0.902146
vt 0.512599 0.904697
vt 0.501245 0.907372
vt 0.497746 0.891220
vt 0.493059 0.879497
vt 0.501777 0.912600
vt 0.496794 0.913109
vt 0.484567 0.877848
vt 0.563313 0.902502
vt 0.516240 0.923045
vt 0.514800 0.916756
vt 0.502429 0.918006
vt 0.506400 0.874487
vt 0.495755 0.885399
vt 0.499250 0.896798
vt 0.511701 0.898786
vt 0.513615 0.910671
vt 0.504206 0.867921
vt 0.489652 0.873380
vt 0.510788 0.892861
vt 0.502831 0.931000
vt 0.509688 0.886865
vt 0.598892 0.847709
vt 0.557785 0.870445
vt 0.556334 0.865303
vt 0.508258 0.880767
vt 0.560507 0.886585
vt 0.562172 0.897278
vt 0.554641 0.860314
vt 0.559799 0.881153
vt 0.564649 0.907634
vt 0.517935 0.929509
vt 0.558937 0.875745
vt 0.561248 0.891971
vt 0.640437 0.857961
vt 0.606368 0.875258
vt 0.605348 0.868148
vt 0.608125 0.889372
vt 0.595423 0.841761
vt 0.609638 0.903327
vt 0.566031 0.912689
vt 0.603907 0.861070
vt 0.607283 0.882321
vt 0.608942 0.896395
vt 0.673011 0.882657
vt 0.644798 0.893259
vt 0.644193 0.885845
vt 0.624694 0.819613
vt 0.643482 0.878476
vt 0.645461 0.914796
vt 0.610138 0.910261
vt 0.601786 0.854183
vt 0.638059 0.847033
vt 0.642288 0.869167
vt 0.645274 0.902834
vt 0.630726 0.829293
vt 0.689791 0.778395
vt 0.659720 0.815486
vt 0.652899 0.806720
vt 0.670259 0.845829
vt 0.675502 0.905400
vt 0.635067 0.837870
vt 0.668007 0.833755
vt 0.672340 0.871853
vt 0.674094 0.893317
vt 0.671652 0.859263
vt 0.759963 0.859953
vt 0.716991 0.879497
vt 0.716699 0.863420
vt 0.717306 0.826477
vt 0.719659 0.912409
vt 0.676539 0.917962
vt 0.664688 0.824036
vt 0.715849 0.809423
vt 0.718052 0.895311
vt 0.702513 0.786419
vt 0.717108 0.845394
vt 0.751451 0.954806
vt 0.720743 0.929160
vt 0.757155 0.763546
vt 0.711400 0.796215
vt 0.759444 0.835900
vt 0.762070 0.914495
vt 0.739938 0.750701
vt 0.759922 0.808800
vt 0.762997 0.897247
vt 0.724723 0.749099
vt 0.792707 0.854985
vt 0.792314 0.831744
vt 0.786698 0.867547
vt 0.760154 0.878367
vt 0.803270 0.831302
vt 0.775092 0.885782
vt 0.794366 0.803950
vt 0.772940 0.772193
s 1
usemtl Material.001
f 9/1/9 5/2/5 3/3/3
f 11/4/11 22/5/22 12/6/12
f 11/4/11 2/7/2 1/8/1
f 9/1/9 18/9/18 8/10/8
f 16/11/16 5/2/5 6/12/6
f 13/13/13 1/8/1 3/3/3
f 10/14/10 19/15/19 9/1/9
f 7/16/7 16/11/16 6/12/6
f 14/17/14 3/3/3 4/18/4
f 2/7/2 20/19/20 10/14/10
f 8/10/8 17/20/17 7/16/7
f 15/21/15 4/18/4 5/2/5
f 36/22/36 25/23/25 26/24/26
f 29/25/29 18/9/18 19/15/19
f 16/11/16 25/23/25 15/21/15
f 13/13/13 21/26/21 11/4/11
f 30/27/30 19/15/19 20/19/20
f 27/28/27 16/11/16 17/20/17
f 14/17/14 23/29/23 13/30/13
f 22/5/22 20/19/20 12/6/12
f 28/31/28 17/20/17 18/9/18
f 15/21/15 24/32/24 14/17/14
f 43/33/43 31/34/31 33/35/33
f 33/35/33 21/26/21 23/36/23
f 30/27/30 39/37/39 29/25/29
f 27/28/27 36/22/36 26/24/26
f 34/38/34 23/29/23 24/32/24
f 22/5/22 40/39/40 30/27/30
f 28/31/28 37/40/37 27/28/27
f 35/41/35 24/32/24 25/23/25
f 31/34/31 22/5/22 21/26/21
f 29/25/29 38/42/38 28/31/28
f 50/43/50 59/44/59 49/45/49
f 40/39/40 49/45/49 39/37/39
f 37/40/37 46/46/46 36/22/36
f 44/47/44 33/48/33 34/38/34
f 32/49/32 50/43/50 40/39/40
f 38/42/38 47/50/47 37/40/37
f 45/51/45 34/38/34 35/41/35
f 41/52/41 32/49/32 31/34/31
f 39/37/39 48/53/48 38/42/38
f 46/46/46 35/41/35 36/22/36
f 67/54/67 56/55/56 57/56/57
f 47/50/47 56/55/56 46/46/46
f 54/57/54 43/58/43 44/47/44
f 42/59/42 60/60/60 50/43/50
f 48/53/48 57/56/57 47/50/47
f 55/61/55 44/47/44 45/51/45
f 51/62/51 42/59/42 41/52/41
f 49/45/49 58/63/58 48/53/48
f 56/55/56 45/51/45 46/46/46
f 53/64/53 41/52/41 43/33/43
f 74/65/74 63/66/63 64/67/64
f 54/57/54 63/66/63 53/68/53
f 62/69/62 60/60/60 52/70/52
f 68/71/68 57/56/57 58/63/58
f 55/61/55 64/67/64 54/57/54
f 51/62/51 62/69/62 52/70/52
f 69/72/69 58/63/58 59/44/59
f 56/55/56 65/73/65 55/61/55
f 53/64/53 61/74/61 51/62/51
f 70/75/70 59/44/59 60/60/60
f 78/76/78 87/77/87 77/78/77
f 62/69/62 80/79/80 70/75/70
f 78/76/78 67/54/67 68/71/68
f 65/73/65 74/65/74 64/67/64
f 71/80/71 62/69/62 61/74/61
f 69/72/69 78/76/78 68/71/68
f 76/81/76 65/73/65 66/82/66
f 63/83/63 71/80/71 61/74/61
f 80/79/80 69/72/69 70/75/70
f 67/54/67 76/81/76 66/82/66
f 95/84/95 84/85/84 85/86/85
f 85/86/85 74/65/74 75/87/75
f 81/88/81 72/89/72 71/80/71
f 79/90/79 88/91/88 78/76/78
f 86/92/86 75/87/75 76/81/76
f 83/93/83 71/80/71 73/94/73
f 80/79/80 89/95/89 79/90/79
f 77/78/77 86/92/86 76/81/76
f 84/85/84 73/96/73 74/65/74
f 72/89/72 90/97/90 80/79/80
f 101/98/101 92/99/92 91/100/91
f 91/100/91 82/101/82 81/88/81
f 89/95/89 98/102/98 88/91/88
f 96/103/96 85/86/85 86/92/86
f 93/104/93 81/88/81 83/93/83
f 90/97/90 99/105/99 89/95/89
f 87/77/87 96/103/96 86/92/86
f 94/106/94 83/107/83 84/85/84
f 82/101/82 100/108/100 90/97/90
f 88/91/88 97/109/97 87/77/87
f 119/110/119 108/111/108 109/112/109
f 99/105/99 108/111/108 98/102/98
f 106/113/106 95/84/95 96/103/96
f 103/114/103 91/100/91 93/104/93
f 100/108/100 109/112/109 99/105/99
f 97/109/97 106/113/106 96/103/96
f 104/115/104 93/116/93 94/106/94
f 92/99/92 110/117/110 100/108/100
f 98/102/98 107/118/107 97/109/97
f 105/119/105 94/106/94 95/84/95
f 126/120/126 115/121/115 116/122/116
f 106/113/106 115/121/115 105/119/105
f 113/123/113 101/98/101 103/114/103
f 110/117/110 119/110/119 109/112/109
f 117/124/117 106/113/106 107/118/107
f 104/115/104 113/125/113 103/126/103
f 102/127/102 120/128/120 110/117/110
f 118/129/118 107/118/107 108/111/108
f 105/119/105 114/130/114 104/115/104
f 111/131/111 102/127/102 101/98/101
f 133/132/133 121/133/121 123/134/123
f 123/134/123 111/131/111 113/123/113
f 120/128/120 129/135/129 119/110/119
f 117/124/117 126/120/126 116/122/116
f 124/136/124 113/125/113 114/130/114
f 112/137/112 130/138/130 120/128/120
f 118/129/118 127/139/127 117/124/117
f 125/140/125 114/130/114 115/121/115
f 121/133/121 112/137/112 111/131/111
f 119/110/119 128/141/128 118/129/118
f 147/142/147 136/143/136 137/144/137
f 130/138/130 139/145/139 129/135/129
f 127/139/127 136/143/136 126/120/126
f 134/146/134 123/147/123 124/136/124
f 122/148/122 140/149/140 130/138/130
f 128/141/128 137/144/137 127/139/127
f 135/150/135 124/136/124 125/140/125
f 131/151/131 122/148/122 121/133/121
f 129/135/129 138/152/138 128/141/128
f 136/143/136 125/140/125 126/120/126
f 134/146/134 143/153/143 133/154/133
f 142/155/142 140/149/140 132/156/132
f 148/157/148 137/144/137 138/152/138
f 135/150/135 144/158/144 134/146/134
f 141/159/141 132/156/132 131/151/131
f 149/160/149 138/152/138 139/145/139
f 136/143/136 145/161/145 135/150/135
f 143/162/143 131/151/131 133/132/133
f 140/149/140 149/160/149 139/145/139
f 148/157/148 151/163/151 147/142/147
f 149/160/149 153/164/153 148/157/148
f 147/142/147 152/165/152 146/166/146
f 153/164/153 155/167/155 151/163/151
f 156/168/156 146/166/146 152/165/152
f 155/167/155 153/164/153 154/169/154
f 154/169/154 149/160/149 150/170/150
f 156/168/156 145/161/145 146/166/146
f 3/3/3 1/8/1 2/7/2
f 2/7/2 10/14/10 9/1/9
f 9/1/9 8/10/8 7/16/7
f 7/16/7 6/12/6 5/2/5
f 5/2/5 4/18/4 3/3/3
f 3/3/3 2/7/2 9/1/9
f 9/1/9 7/16/7 5/2/5
f 11/4/11 21/26/21 22/5/22
f 11/4/11 12/6/12 2/7/2
f 9/1/9 19/15/19 18/9/18
f 16/11/16 15/21/15 5/2/5
f 13/13/13 11/4/11 1/8/1
f 10/14/10 20/19/20 19/15/19
f 7/16/7 17/20/17 16/11/16
f 14/17/14 13/30/13 3/3/3
f 2/7/2 12/6/12 20/19/20
f 8/10/8 18/9/18 17/20/17
f 15/21/15 14/17/14 4/18/4
f 36/22/36 35/41/35 25/23/25
f 29/25/29 28/31/28 18/9/18
f 16/11/16 26/24/26 25/23/25
f 13/13/13 23/36/23 21/26/21
f 30/27/30 29/25/29 19/15/19
f 27/28/27 26/24/26 16/11/16
f 14/17/14 24/32/24 23/29/23
f 22/5/22 30/27/30 20/19/20
f 28/31/28 27/28/27 17/20/17
f 15/21/15 25/23/25 24/32/24
f 43/33/43 41/52/41 31/34/31
f 33/35/33 31/34/31 21/26/21
f 30/27/30 40/39/40 39/37/39
f 27/28/27 37/40/37 36/22/36
f 34/38/34 33/48/33 23/29/23
f 22/5/22 32/49/32 40/39/40
f 28/31/28 38/42/38 37/40/37
f 35/41/35 34/38/34 24/32/24
f 31/34/31 32/49/32 22/5/22
f 29/25/29 39/37/39 38/42/38
f 50/43/50 60/60/60 59/44/59
f 40/39/40 50/43/50 49/45/49
f 37/40/37 47/50/47 46/46/46
f 44/47/44 43/58/43 33/48/33
f 32/49/32 42/59/42 50/43/50
f 38/42/38 48/53/48 47/50/47
f 45/51/45 44/47/44 34/38/34
f 41/52/41 42/59/42 32/49/32
f 39/37/39 49/45/49 48/53/48
f 46/46/46 45/51/45 35/41/35
f 67/54/67 66/82/66 56/55/56
f 47/50/47 57/56/57 56/55/56
f 54/57/54 53/68/53 43/58/43
f 42/59/42 52/70/52 60/60/60
f 48/53/48 58/63/58 57/56/57
f 55/61/55 54/57/54 44/47/44
f 51/62/51 52/70/52 42/59/42
f 49/45/49 59/44/59 58/63/58
f 56/55/56 55/61/55 45/51/45
f 53/64/53 51/62/51 41/52/41
f 74/65/74 73/96/73 63/66/63
f 54/57/54 64/67/64 63/66/63
f 62/69/62 70/75/70 60/60/60
f 68/71/68 67/54/67 57/56/57
f 55/61/55 65/73/65 64/67/64
f 51/62/51 61/74/61 62/69/62
f 69/72/69 68/71/68 58/63/58
f 56/55/56 66/82/66 65/73/65
f 53/64/53 63/83/63 61/74/61
f 70/75/70 69/72/69 59/44/59
f 78/76/78 88/91/88 87/77/87
f 62/69/62 72/89/72 80/79/80
f 78/76/78 77/78/77 67/54/67
f 65/73/65 75/87/75 74/65/74
f 71/80/71 72/89/72 62/69/62
f 69/72/69 79/90/79 78/76/78
f 76/81/76 75/87/75 65/73/65
f 63/83/63 73/94/73 71/80/71
f 80/79/80 79/90/79 69/72/69
f 67/54/67 77/78/77 76/81/76
f 95/84/95 94/106/94 84/85/84
f 85/86/85 84/85/84 74/65/74
f 81/88/81 82/101/82 72/89/72
f 79/90/79 89/95/89 88/91/88
f 86/92/86 85/86/85 75/87/75
f 83/93/83 81/88/81 71/80/71
f 80/79/80 90/97/90 89/95/89
f 77/78/77 87/77/87 86/92/86
f 84/85/84 83/107/83 73/96/73
f 72/89/72 82/101/82 90/97/90
f 101/98/101 102/127/102 92/99/92
f 91/100/91 92/99/92 82/101/82
f 89/95/89 99/105/99 98/102/98
f 96/103/96 95/84/95 85/86/85
f 93/104/93 91/100/91 81/88/81
f 90/97/90 100/108/100 99/105/99
f 87/77/87 97/109/97 96/103/96
f 94/106/94 93/116/93 83/107/83
f 82/101/82 92/99/92 100/108/100
f 88/91/88 98/102/98 97/109/97
f 119/110/119 118/129/118 108/111/108
f 99/105/99 109/112/109 108/111/108
f 106/113/106 105/119/105 95/84/95
f 103/114/103 101/98/101 91/100/91
f 100/108/100 110/117/110 109/112/109
f 97/109/97 107/118/107 106/113/106
f 104/115/104 103/126/103 93/116/93
f 92/99/92 102/127/102 110/117/110
f 98/102/98 108/111/108 107/118/107
f 105/119/105 104/115/104 94/106/94
f 126/120/126 125/140/125 115/121/115
f 106/113/106 116/122/116 115/121/115
f 113/123/113 111/131/111 101/98/101
f 110/117/110 120/128/120 119/110/119
f 117/124/117 116/122/116 106/113/106
f 104/115/104 114/130/114 113/125/113
f 102/127/102 112/137/112 120/128/120
f 118/129/118 117/124/117 107/118/107
f 105/119/105 115/121/115 114/130/114
f 111/131/111 112/137/112 102/127/102
f 133/132/133 131/151/131 121/133/121
f 123/134/123 121/133/121 111/131/111
f 120/128/120 130/138/130 129/135/129
f 117/124/117 127/139/127 126/120/126
f 124/136/124 123/147/123 113/125/113
f 112/137/112 122/148/122 130/138/130
f 118/129/118 128/141/128 127/139/127
f 125/140/125 124/136/124 114/130/114
f 121/133/121 122/148/122 112/137/112
f 119/110/119 129/135/129 128/141/128
f 147/142/147 146/166/146 136/143/136
f 130/138/130 140/149/140 139/145/139
f 127/139/127 137/144/137 136/143/136
f 134/146/134 133/154/133 123/147/123
f 122/148/122 132/156/132 140/149/140
f 128/141/128 138/152/138 137/144/137
f 135/150/135 134/146/134 124/136/124
f 131/151/131 132/156/132 122/148/122
f 129/135/129 139/145/139 138/152/138
f 136/143/136 135/150/135 125/140/125
f 134/146/134 144/158/144 143/153/143
f 142/155/142 150/170/150 140/149/140
f 148/157/148 147/142/147 137/144/137
f 135/150/135 145/161/145 144/158/144
f 141/159/141 142/155/142 132/156/132
f 149/160/149 148/157/148 138/152/138
f 136/143/136 146/166/146 145/161/145
f 143/162/143 141/159/141 131/151/131
f 140/149/140 150/170/150 149/160/149
f 148/157/148 153/164/153 151/163/151
f 149/160/149 154/169/154 153/164/153
f 147/142/147 151/163/151 152/165/152
