# Blender 4.5.3 LTS
# www.blender.org
mtllib l_tail.mtl
o Lioness_Body_Lioness_Body_0.011
v -0.008194 0.510093 0.572894
v 0.037163 0.457030 0.446859
v 0.057333 0.488029 0.589237
v 0.022933 0.367397 0.256190
v 0.063258 0.348058 0.245061
v -0.016616 0.014136 -0.072140
v 0.043713 0.066663 -0.010136
v -0.012470 -0.161806 -0.303360
v 0.012042 -0.249400 -0.448610
v -0.010212 -0.353173 -0.647243
v 0.013752 -0.653913 -1.053201
v -0.020961 -0.660096 -1.056596
v 0.036095 -0.714080 -1.206939
v -0.004486 -0.722365 -1.213550
v 0.017792 -0.749150 -1.217233
v 0.052383 -0.710372 -1.058889
v 0.038481 -0.668751 -1.054250
v 0.048428 -0.742592 -1.205548
v 0.012814 -0.572986 -0.871981
v 0.041283 -0.731168 -1.041460
v 0.029417 -0.233615 -0.388385
v 0.000499 -0.508666 -0.713165
v 0.019623 -0.761323 -1.160040
v 0.041796 -0.298005 -0.337257
v 0.045671 -0.311479 -0.462748
v 0.039269 -0.214636 -0.285366
v 0.024902 -0.248173 -0.166914
v -0.023283 -0.289516 -0.216606
v 0.068894 -0.013929 0.072428
v 0.021482 0.207110 0.360733
v 0.061915 0.003016 -0.005707
v 0.002283 -0.185891 -0.034267
v 0.096076 0.339237 0.276961
v 0.065910 0.236057 0.394273
v 0.100380 0.295996 0.431249
v 0.108491 0.263793 0.317872
v 0.113029 0.369422 0.381318
v 0.111113 0.375749 0.487325
v 0.095035 0.312885 0.598013
v 0.119190 0.386907 0.490477
v 0.095105 0.432018 0.468935
v 0.000125 0.281152 0.690661
v 0.100480 0.423550 0.483896
v 0.113836 0.373951 0.561162
v 0.109775 0.378688 0.686500
v 0.049567 0.268431 0.613972
v 0.016260 0.283721 0.695061
v 0.071011 0.319202 0.716902
v 0.084122 0.299925 0.668996
v 0.110999 0.353761 0.711814
v 0.126424 0.411345 0.655910
v 0.108521 0.450784 0.626018
v -0.015482 0.456702 0.450586
v -0.019325 0.347458 0.244856
v -0.059689 0.059431 -0.006710
v -0.024782 -0.740084 -1.042668
v -0.035452 -0.727659 -1.083308
v -0.041940 -0.680924 -1.051605
v -0.015190 -0.747084 -1.211724
v 0.019788 -0.761344 -1.195535
v 0.004034 -0.727570 -0.992198
v -0.069635 -0.308193 -0.500263
v -0.045658 -0.262148 -0.472910
v -0.021973 -0.325969 -0.286431
v -0.081000 -0.295685 -0.341066
v -0.081075 -0.285163 -0.394239
v -0.061202 -0.378142 -0.440443
v -0.069990 -0.225550 -0.359415
v -0.080845 -0.193218 -0.068591
v -0.091700 -0.023590 0.077729
v -0.050079 -0.234725 -0.115055
v 0.022910 0.238468 0.407211
v -0.088530 -0.005979 -0.000414
v -0.063922 0.322903 0.305503
v -0.045843 0.327333 0.251613
v -0.020655 0.237557 0.395888
v -0.051617 0.298639 0.434092
v -0.065077 0.266811 0.321120
v -0.043339 0.432762 0.404105
v -0.068705 0.377997 0.489793
v -0.093916 0.312925 0.598065
v -0.088034 0.401427 0.485235
v -0.070276 0.433078 0.471837
v 0.000002 0.281121 0.690684
v -0.048391 0.268452 0.613999
v -0.112552 0.374006 0.561174
v -0.088478 0.424078 0.485344
v -0.109629 0.378688 0.686500
v -0.016131 0.283730 0.695069
v -0.070865 0.319202 0.716902
v -0.083976 0.299925 0.668996
v -0.110853 0.353761 0.711814
v -0.126279 0.411345 0.655910
v -0.108375 0.450784 0.626018
v -0.069225 0.479722 0.596681
v -0.089493 -0.478312 -0.753304
vn -0.1241 0.9360 -0.3293
vn 0.5394 0.8124 -0.2216
vn 0.2610 0.8953 -0.3610
vn 0.4248 0.6847 -0.5923
vn 0.0103 0.8248 -0.5654
vn 0.6033 0.5271 -0.5985
vn -0.0786 0.7731 -0.6294
vn 0.2067 0.7947 -0.5708
vn 0.5265 0.7358 -0.4259
vn 0.0700 0.8222 -0.5648
vn 0.1873 0.8631 -0.4690
vn -0.4448 0.7724 -0.4534
vn 0.4479 0.5939 -0.6684
vn -0.3901 0.5209 -0.7592
vn 0.7935 0.5744 -0.2013
vn 0.7848 -0.3285 -0.5255
vn 0.1241 -0.4434 -0.8877
vn 0.5033 -0.8628 0.0475
vn 0.1804 -0.8704 0.4581
vn 0.9975 -0.0508 0.0498
vn 0.9773 0.1804 -0.1114
vn 0.7811 0.5520 -0.2919
vn 0.6541 -0.6450 0.3951
vn 0.9409 0.2769 -0.1949
vn 0.9162 -0.3680 0.1585
vn 0.6482 -0.6737 0.3549
vn 0.2651 -0.8763 0.4022
vn 0.2261 0.7767 -0.5879
vn -0.1641 -0.7510 0.6396
vn 0.9201 -0.3396 0.1953
vn 0.9771 0.1154 -0.1789
vn -0.0286 -0.8080 0.5885
vn 0.5328 -0.7544 0.3834
vn 0.8318 0.4366 -0.3427
vn 0.9383 0.3030 -0.1668
vn 0.9957 -0.0880 -0.0274
vn 0.9114 -0.3807 0.1565
vn 0.9186 -0.3938 0.0321
vn 0.4156 -0.8916 0.1798
vn 0.8929 -0.4465 0.0580
vn 0.9996 -0.0044 0.0283
vn 0.5944 0.8032 0.0396
vn 0.7981 0.6001 -0.0539
vn 0.4653 -0.8827 -0.0663
vn 0.0350 -0.9645 0.2617
vn 0.8985 0.4039 -0.1720
vn 0.9721 -0.2278 -0.0566
vn 0.2603 -0.9270 0.2698
vn 0.6326 -0.6154 -0.4702
vn 0.6170 -0.7499 0.2387
vn 0.8903 -0.1791 -0.4186
vn 0.9899 -0.1100 -0.0899
vn -0.2370 0.9025 -0.3597
vn -0.3776 0.7166 -0.5864
vn -0.6567 0.5490 -0.5170
vn -0.4677 0.7557 -0.4585
vn -0.6963 -0.4096 -0.5894
vn -0.2777 -0.9500 -0.1426
vn -0.5134 -0.8333 0.2049
vn -0.3484 -0.8455 0.4047
vn -0.9274 -0.3718 -0.0405
vn -0.9609 0.2165 -0.1724
vn -0.8056 0.5067 -0.3070
vn -0.7109 -0.6247 0.3231
vn -0.3424 -0.8353 0.4303
vn -0.9734 -0.2142 0.0816
vn -0.7953 0.4239 -0.4334
vn -0.9858 0.1469 -0.0819
vn 0.1198 -0.8460 0.5196
vn -0.8915 0.3703 -0.2610
vn -0.6584 -0.5868 0.4714
vn -0.9353 -0.2258 0.2724
vn -0.9693 0.1971 -0.1472
vn 0.0098 -0.9210 0.3895
vn -0.3701 -0.7817 0.5021
vn -0.7614 0.4951 -0.4185
vn -0.9691 0.1893 -0.1581
vn -0.9975 -0.0076 0.0697
vn -0.9252 -0.3690 0.0881
vn -0.8896 -0.4354 -0.1378
vn -0.9254 -0.1803 -0.3333
vn -0.4766 0.7828 -0.4001
vn -0.3743 -0.9227 0.0929
vn -0.8971 -0.4242 -0.1236
vn -0.6331 0.7589 -0.1524
vn -0.7860 0.3580 -0.5040
vn -0.7109 -0.6892 -0.1403
vn 0.0001 -0.9701 0.2426
vn -0.6086 0.7465 -0.2690
vn -0.8808 0.4054 -0.2448
vn -0.9679 -0.2238 -0.1146
vn -0.2287 -0.9408 0.2503
vn -0.6325 -0.6155 -0.4702
vn -0.6268 -0.7392 0.2463
vn -0.8880 -0.1797 -0.4233
vn -0.9882 -0.1172 -0.0990
vt 1.273181 0.089006
vt 1.272038 0.104445
vt 1.332173 0.096584
vt 1.413368 0.100001
vt 1.411554 0.093059
vt 1.498710 0.101485
vt 1.513169 0.090649
vt 1.574308 0.088940
vt 1.615753 0.097073
vt 1.660883 0.091955
vt 1.766074 0.093997
vt 1.766525 0.087892
vt 1.790241 0.093575
vt 1.790636 0.088811
vt 1.767478 0.099157
vt 1.791875 0.095360
vt 1.794525 0.091294
vt 1.791375 0.100086
vt 1.770051 0.109845
vt 1.768225 0.103789
vt 1.726897 0.106366
vt 1.601294 0.102929
vt 1.690531 0.122946
vt 1.622178 0.106969
vt 1.597806 0.120961
vt 1.560001 0.132194
vt 1.575330 0.139222
vt 1.580112 0.110825
vt 1.530976 0.139583
vt 1.492356 0.124994
vt 1.504211 0.112574
vt 1.416489 0.155956
vt 1.404410 0.147617
vt 1.410327 0.109096
vt 1.384744 0.118623
vt 1.415190 0.128343
vt 1.390630 0.139546
vt 1.355267 0.132485
vt 1.289313 0.160501
vt 1.286859 0.147173
vt 1.332076 0.128703
vt 1.333795 0.112413
vt 1.315119 0.114642
vt 1.288517 0.129434
vt 1.275474 0.173628
vt 1.268545 0.120215
vt 1.263964 0.140724
vt 1.273708 0.169840
vt 1.265323 0.158596
vt 1.275234 0.154869
vt 1.261428 0.148247
vt 1.266031 0.131090
vt 1.336569 0.085475
vt 1.415088 0.081414
vt 1.498812 0.077690
vt 1.620969 0.082717
vt 1.791614 0.086418
vt 1.795750 0.085795
vt 1.769374 0.072935
vt 1.761206 0.065019
vt 1.771208 0.081703
vt 1.766693 0.082986
vt 1.629014 0.076734
vt 1.625426 0.056312
vt 1.592221 0.043829
vt 1.597771 0.060402
vt 1.689295 0.075966
vt 1.607381 0.070228
vt 1.550356 0.043812
vt 1.594419 0.076891
vt 1.536473 0.049383
vt 1.492356 0.056379
vt 1.504211 0.068799
vt 1.404482 0.024287
vt 1.404409 0.033756
vt 1.417024 0.074160
vt 1.408878 0.064748
vt 1.415189 0.053030
vt 1.390629 0.041827
vt 1.355267 0.048889
vt 1.337770 0.054820
vt 1.365057 0.076732
vt 1.289313 0.020873
vt 1.286859 0.034201
vt 1.333795 0.068960
vt 1.315119 0.066732
vt 1.288517 0.051940
vt 1.275474 0.007737
vt 1.271488 0.073415
vt 1.268545 0.061159
vt 1.263964 0.040650
vt 1.273706 0.011533
vt 1.265323 0.022778
vt 1.275234 0.026505
vt 1.261428 0.033127
vt 1.266031 0.050284
s 1
usemtl Lioness_Body.001
f 1/1/1 3/2/2 2/3/3
f 2/3/3 5/4/4 4/5/5
f 4/5/5 5/4/4 7/6/6
f 4/5/5 7/6/6 6/7/7
f 6/7/7 7/6/6 8/8/8
f 8/8/8 9/9/9 10/10/10
f 10/10/10 9/9/9 11/11/11
f 10/10/10 11/11/11 12/12/12
f 12/12/12 11/11/11 13/13/13
f 12/12/12 13/13/13 14/14/14
f 11/11/11 17/15/15 13/13/13
f 14/14/14 13/13/13 18/16/16
f 14/14/14 18/16/16 15/17/17
f 18/16/16 23/18/18 15/17/17
f 20/19/19 23/18/18 18/16/16
f 16/20/20 20/19/19 18/16/16
f 17/15/15 16/20/20 18/16/16
f 13/13/13 17/15/15 18/16/16
f 17/15/15 19/21/21 16/20/20
f 21/22/22 19/21/21 17/15/15
f 20/19/19 22/23/23 23/18/18
f 16/20/20 22/23/23 20/19/19
f 11/11/11 21/22/22 17/15/15
f 25/24/24 19/21/21 21/22/22
f 9/9/9 21/22/22 11/11/11
f 25/24/24 16/20/20 19/21/21
f 25/24/24 24/25/25 16/20/20
f 24/25/25 22/23/23 16/20/20
f 27/26/26 28/27/27 22/23/23
f 28/27/27 23/18/18 22/23/23
f 24/25/25 27/26/26 22/23/23
f 26/28/28 25/24/24 21/22/22
f 8/8/8 21/22/22 9/9/9
f 32/29/29 28/27/27 27/26/26
f 29/30/30 27/26/26 24/25/25
f 31/31/31 24/25/25 25/24/24
f 26/28/28 31/31/31 25/24/24
f 21/22/22 31/31/31 26/28/28
f 7/6/6 21/22/22 8/8/8
f 32/29/29 30/32/32 28/27/27
f 31/31/31 29/30/30 24/25/25
f 7/6/6 31/31/31 21/22/22
f 34/33/33 32/29/29 27/26/26
f 34/33/33 30/32/32 32/29/29
f 5/4/4 33/34/34 7/6/6
f 33/34/34 31/31/31 7/6/6
f 33/34/34 37/35/35 31/31/31
f 37/35/35 36/36/36 31/31/31
f 36/36/36 29/30/30 31/31/31
f 36/36/36 35/37/37 29/30/30
f 35/37/37 27/26/26 29/30/30
f 35/37/37 34/33/33 27/26/26
f 38/38/38 35/37/37 36/36/36
f 37/35/35 38/38/38 36/36/36
f 46/39/39 30/32/32 34/33/33
f 39/40/40 35/37/37 38/38/38
f 37/35/35 40/41/41 38/38/38
f 41/42/42 37/35/35 33/34/34
f 2/3/3 41/42/42 33/34/34
f 2/3/3 33/34/34 5/4/4
f 41/42/42 40/41/41 37/35/35
f 43/43/43 40/41/41 41/42/42
f 44/44/44 38/38/38 40/41/41
f 35/37/37 46/39/39 34/33/33
f 46/39/39 42/45/45 30/32/32
f 39/40/40 46/39/39 35/37/37
f 43/43/43 44/44/44 40/41/41
f 2/3/3 43/43/43 41/42/42
f 3/2/2 43/43/43 2/3/3
f 3/2/2 52/46/46 43/43/43
f 44/44/44 45/47/47 38/38/38
f 45/47/47 39/40/40 38/38/38
f 47/48/48 42/45/45 46/39/39
f 48/49/49 47/48/48 49/50/50
f 49/50/50 47/48/48 46/39/39
f 49/50/50 46/39/39 39/40/40
f 50/51/51 48/49/49 49/50/50
f 50/51/51 49/50/50 39/40/40
f 45/47/47 50/51/51 39/40/40
f 51/52/52 45/47/47 44/44/44
f 52/46/46 51/52/52 44/44/44
f 52/46/46 44/44/44 43/43/43
f 1/1/1 2/3/3 53/53/53
f 2/3/3 4/5/5 53/53/53
f 53/53/53 4/5/5 54/54/54
f 4/5/5 6/7/7 54/54/54
f 6/7/7 55/55/55 54/54/54
f 6/7/7 8/8/8 55/55/55
f 8/8/8 63/56/56 55/55/55
f 8/8/8 10/10/10 63/56/56
f 10/10/10 12/12/12 63/56/56
f 14/14/14 15/17/17 59/57/57
f 60/58/58 59/57/57 15/17/17
f 56/59/59 59/57/57 60/58/58
f 56/59/59 60/58/58 61/60/60
f 57/61/61 59/57/57 56/59/59
f 58/62/62 59/57/57 57/61/61
f 58/62/62 14/14/14 59/57/57
f 12/12/12 14/14/14 58/62/62
f 62/63/63 58/62/62 57/61/61
f 67/64/64 56/59/59 61/60/60
f 12/12/12 58/62/62 63/56/56
f 63/56/56 58/62/62 62/63/63
f 67/64/64 61/60/60 64/65/65
f 65/66/66 57/61/61 56/59/59
f 62/63/63 96/67/67 66/68/68
f 96/67/67 65/66/66 66/68/68
f 65/66/66 56/59/59 67/64/64
f 67/64/64 64/65/65 71/69/69
f 68/70/70 62/63/63 66/68/68
f 68/70/70 63/56/56 62/63/63
f 55/55/55 63/56/56 68/70/70
f 65/66/66 67/64/64 69/71/71
f 69/71/71 67/64/64 71/69/69
f 70/72/72 65/66/66 69/71/71
f 73/73/73 66/68/68 65/66/66
f 68/70/70 66/68/68 73/73/73
f 71/69/69 64/65/65 72/74/74
f 73/73/73 65/66/66 70/72/72
f 55/55/55 68/70/70 73/73/73
f 76/75/75 69/71/71 71/69/69
f 76/75/75 71/69/69 72/74/74
f 54/54/54 55/55/55 75/76/76
f 75/76/76 55/55/55 73/73/73
f 75/76/76 73/73/73 74/77/77
f 74/77/77 73/73/73 78/78/78
f 78/78/78 73/73/73 70/72/72
f 78/78/78 70/72/72 77/79/79
f 77/79/79 70/72/72 69/71/71
f 77/79/79 69/71/71 76/75/75
f 80/80/80 78/78/78 77/79/79
f 74/77/77 78/78/78 80/80/80
f 75/76/76 74/77/77 82/81/81
f 79/82/82 54/54/54 75/76/76
f 53/53/53 54/54/54 79/82/82
f 79/82/82 75/76/76 82/81/81
f 82/81/81 74/77/77 80/80/80
f 85/83/83 76/75/75 72/74/74
f 81/84/84 80/80/80 77/79/79
f 83/85/85 79/82/82 82/81/81
f 53/53/53 79/82/82 83/85/85
f 87/86/86 83/85/85 82/81/81
f 86/87/87 82/81/81 80/80/80
f 77/79/79 76/75/75 85/83/83
f 85/83/83 72/74/74 84/88/88
f 81/84/84 77/79/79 85/83/83
f 87/86/86 82/81/81 86/87/87
f 53/53/53 83/85/85 87/86/86
f 1/1/1 53/53/53 87/86/86
f 95/89/89 87/86/86 94/90/90
f 1/1/1 87/86/86 95/89/89
f 86/87/87 80/80/80 88/91/91
f 88/91/91 80/80/80 81/84/84
f 89/92/92 85/83/83 84/88/88
f 90/93/93 91/94/94 89/92/92
f 91/94/94 85/83/83 89/92/92
f 91/94/94 81/84/84 85/83/83
f 92/95/95 81/84/84 91/94/94
f 92/95/95 91/94/94 90/93/93
f 88/91/91 81/84/84 92/95/95
f 93/96/96 86/87/87 88/91/91
f 94/90/90 86/87/87 93/96/96
f 94/90/90 87/86/86 86/87/87
f 62/63/63 57/61/61 96/67/67
f 96/67/67 57/61/61 65/66/66
