# Blender 4.5.3 LTS
# www.blender.org
mtllib pb_head.mtl
o Lobo.001
v 1.886621 -1.812080 -0.000043
v -1.863379 -1.812080 -2.500043
v 1.886621 -1.812080 -2.500043
v 1.886621 -1.812080 -0.000043
v -1.863379 -1.812080 -0.000043
v -1.863379 -1.812080 -2.500043
v -1.863379 -1.812080 -2.500043
v -1.863379 1.937921 -0.000044
v -1.863379 1.937921 -2.500044
v -1.863379 -1.812080 -2.500043
v -1.863379 -1.812080 -0.000043
v -1.863379 1.937921 -0.000044
v 1.886621 -1.812080 -0.000043
v 1.886621 1.937921 -2.500044
v 1.886621 1.937921 -0.000044
v 1.886621 -1.812080 -0.000043
v 1.886621 -1.812080 -2.500043
v 1.886621 1.937921 -2.500044
v 1.886621 -1.812080 -2.500043
v -1.863379 1.937921 -2.500044
v 1.886621 1.937921 -2.500044
v 1.886621 -1.812080 -2.500043
v -1.863379 -1.812080 -2.500043
v -1.863379 1.937921 -2.500044
v -1.863379 -1.812080 -0.000043
v 1.886621 -1.812080 -0.000043
v 1.886621 1.937921 -0.000044
v 1.886621 1.937921 -2.500044
v -1.863379 1.937921 -0.000044
v 1.886621 1.937921 -0.000044
v 1.886621 1.937921 -2.500044
v -1.863379 1.937921 -2.500044
v -1.863379 1.937921 -0.000044
v 0.949122 -1.199270 -2.440111
v -0.925878 -1.199270 -4.539339
v 0.949122 -1.199270 -4.539339
v 0.949122 -1.199270 -2.440111
v -0.925878 -1.199270 -2.440111
v -0.925878 -1.199270 -4.539339
v -0.925878 -1.199270 -4.539339
v -0.925878 0.050730 -2.440111
v -0.925878 0.050730 -4.539339
v -0.925878 -1.199270 -4.539339
v -0.925878 -1.199270 -2.440111
v -0.925878 0.050730 -2.440111
v 0.949122 -1.199270 -2.440111
v 0.949122 0.050730 -4.539339
v 0.949122 0.050730 -2.440111
v 0.949122 -1.199270 -2.440111
v 0.949122 -1.199270 -4.539339
v 0.949122 0.050730 -4.539339
v 0.949122 -1.199270 -4.539339
v -0.925878 0.050730 -4.539339
v 0.949122 0.050730 -4.539339
v 0.949122 -1.199270 -4.539339
v -0.925878 -1.199270 -4.539339
v -0.925878 0.050730 -4.539339
v -0.925878 -1.199270 -2.492497
v 0.949122 0.050730 -2.492497
v -0.925878 0.050730 -2.492497
v -0.925878 -1.199270 -2.492497
v 0.949122 -1.199270 -2.492497
v 0.949122 0.050730 -2.492497
v 0.949122 0.050730 -4.539339
v -0.925878 0.050730 -2.440111
v 0.949122 0.050730 -2.440111
v 0.949122 0.050730 -4.539339
v -0.925878 0.050730 -4.539339
v -0.925878 0.050730 -2.440111
v 0.949122 -1.814540 -4.539339
v -0.925878 -1.189540 -4.539339
v 0.949122 -1.189540 -4.539339
v 0.949122 -1.814540 -4.539339
v -0.925878 -1.814540 -4.539339
v -0.925878 -1.189540 -4.539339
v -0.925878 -1.814539 -2.492497
v 0.949122 -1.189539 -2.492497
v -0.925878 -1.189539 -2.492497
v -0.925878 -1.814539 -2.492497
v 0.949122 -1.814539 -2.492497
v 0.949122 -1.189539 -2.492497
v 0.949122 -1.551539 -3.322627
v 0.949122 -1.814539 -2.440111
v 0.949122 -1.814539 -3.318009
v 0.949122 -1.189539 -3.329345
v 0.949122 -1.189539 -2.440111
v 0.949122 -1.814539 -2.440111
v 0.949122 -1.551539 -3.322627
v -0.925878 -1.189539 -3.288199
v -0.925878 -1.189539 -2.440111
v -0.152878 -1.189539 -3.305413
v -0.152878 -1.189539 -3.305413
v -0.925878 -1.189539 -2.440111
v 0.949122 -1.189539 -2.440111
v 0.949122 -1.189539 -3.329345
v 0.180122 -1.814539 -3.301215
v 0.949122 -1.814539 -2.440111
v -0.925878 -1.814539 -2.440111
v -0.925878 -1.814539 -3.276864
v 0.949122 -1.814539 -3.318009
v 0.949122 -1.814539 -2.440111
v 0.180122 -1.814539 -3.301215
v -0.925878 -1.814539 -3.276864
v -0.925878 -1.814539 -2.440111
v -0.925878 -1.189539 -2.440111
v -0.925878 -1.440539 -3.283582
v -0.925878 -1.440539 -3.283582
v -0.925878 -1.189539 -2.440111
v -0.925878 -1.189539 -3.288199
v 0.949122 -1.814539 -3.786136
v 0.949122 -1.814540 -4.539339
v 0.949122 -1.189540 -4.539339
v 0.949122 -1.412539 -3.789495
v 0.949122 -1.412539 -3.789495
v 0.949122 -1.551539 -3.322627
v 0.949122 -1.814539 -3.318009
v 0.949122 -1.814539 -3.786136
v 0.949122 -1.412539 -3.789495
v 0.949122 -1.189540 -4.539339
v 0.949122 -1.189539 -3.791174
v 0.949122 -1.189539 -3.791174
v 0.949122 -1.189539 -3.329345
v 0.949122 -1.551539 -3.322627
v 0.949122 -1.412539 -3.789495
v 0.311122 -1.189539 -3.824762
v 0.949122 -1.189540 -4.539339
v -0.925878 -1.189540 -4.539339
v -0.925878 -1.189539 -3.889838
v -0.925878 -1.189539 -3.889838
v -0.925878 -1.189539 -3.288199
v -0.152878 -1.189539 -3.305413
v 0.311122 -1.189539 -3.824762
v 0.949122 -1.189539 -3.791174
v 0.949122 -1.189540 -4.539339
v 0.311122 -1.189539 -3.824762
v 0.311122 -1.189539 -3.824762
v -0.152878 -1.189539 -3.305413
v 0.949122 -1.189539 -3.329345
v 0.949122 -1.189539 -3.791174
v -0.925878 -1.814539 -3.884800
v -0.925878 -1.814540 -4.539339
v -0.312378 -1.814539 -3.852472
v -0.312378 -1.814539 -3.852472
v 0.180122 -1.814539 -3.301215
v -0.925878 -1.814539 -3.276864
v -0.925878 -1.814539 -3.884800
v -0.312378 -1.814539 -3.852472
v -0.925878 -1.814540 -4.539339
v 0.949122 -1.814540 -4.539339
v 0.949122 -1.814539 -3.786136
v 0.949122 -1.814539 -3.786136
v 0.949122 -1.814539 -3.318009
v 0.180122 -1.814539 -3.301215
v -0.312378 -1.814539 -3.852472
v -0.925878 -1.620039 -3.886478
v -0.925878 -1.814540 -4.539339
v -0.925878 -1.814539 -3.884800
v -0.925878 -1.814539 -3.884800
v -0.925878 -1.814539 -3.276864
v -0.925878 -1.440539 -3.283582
v -0.925878 -1.620039 -3.886478
v -0.925878 -1.189539 -3.889838
v -0.925878 -1.189540 -4.539339
v -0.925878 -1.814540 -4.539339
v -0.925878 -1.620039 -3.886478
v -0.925878 -1.620039 -3.886478
v -0.925878 -1.440539 -3.283582
v -0.925878 -1.189539 -3.288199
v -0.925878 -1.189539 -3.889838
v -0.613378 1.983349 -0.867855
v -1.863378 1.983349 -1.492855
v -0.613378 1.983349 -1.492855
v -0.613378 1.983349 -0.867855
v -1.863378 1.983349 -0.867855
v -1.863378 1.983349 -1.492855
v -1.863378 1.983349 -1.492855
v -1.863378 3.233349 -0.867855
v -1.863378 3.233349 -1.492855
v -1.863378 1.983349 -1.492855
v -1.863378 1.983349 -0.867855
v -1.863378 3.233349 -0.867855
v -0.613378 1.983349 -0.867855
v -0.613378 3.233349 -1.492855
v -0.613378 3.233349 -0.867855
v -0.613378 1.983349 -0.867855
v -0.613378 1.983349 -1.492855
v -0.613378 3.233349 -1.492855
v -0.613378 1.983349 -1.492855
v -1.863378 3.233349 -1.492855
v -0.613378 3.233349 -1.492855
v -0.613378 1.983349 -1.492855
v -1.863378 1.983349 -1.492855
v -1.863378 3.233349 -1.492855
v -1.863378 1.983349 -0.867855
v -0.613378 3.233349 -0.867855
v -1.863378 3.233349 -0.867855
v -1.863378 1.983349 -0.867855
v -0.613378 1.983349 -0.867855
v -0.613378 3.233349 -0.867855
v -0.613378 3.233349 -1.492855
v -1.863378 3.233349 -0.867855
v -0.613378 3.233349 -0.867855
v -0.613378 3.233349 -1.492855
v -1.863378 3.233349 -1.492855
v -1.863378 3.233349 -0.867855
v 1.748147 1.983317 -0.865876
v 0.498147 1.983317 -1.490876
v 1.748147 1.983317 -1.490876
v 1.748147 1.983317 -0.865876
v 0.498147 1.983317 -0.865876
v 0.498147 1.983317 -1.490876
v 0.498147 1.983317 -1.490876
v 0.498147 3.233318 -0.865876
v 0.498147 3.233318 -1.490876
v 0.498147 1.983317 -1.490876
v 0.498147 1.983317 -0.865876
v 0.498147 3.233318 -0.865876
v 1.748147 1.983317 -0.865876
v 1.748147 3.233318 -1.490876
v 1.748147 3.233318 -0.865876
v 1.748147 1.983317 -0.865876
v 1.748147 1.983317 -1.490876
v 1.748147 3.233318 -1.490876
v 1.748147 1.983317 -1.490876
v 0.498147 3.233318 -1.490876
v 1.748147 3.233318 -1.490876
v 1.748147 1.983317 -1.490876
v 0.498147 1.983317 -1.490876
v 0.498147 3.233318 -1.490876
v 0.498147 1.983317 -0.865876
v 1.748147 3.233318 -0.865876
v 0.498147 3.233318 -0.865876
v 0.498147 1.983317 -0.865876
v 1.748147 1.983317 -0.865876
v 1.748147 3.233318 -0.865876
v 1.748147 3.233318 -1.490876
v 0.498147 3.233318 -0.865876
v 1.748147 3.233318 -0.865876
v 1.748147 3.233318 -1.490876
v 0.498147 3.233318 -1.490876
v 0.498147 3.233318 -0.865876
v 0.948622 -1.813443 -2.232359
v -0.923378 -1.813443 -2.232359
v -0.975378 0.054559 -2.232358
v 0.948622 0.054559 -2.232358
v -0.929378 -1.745444 -2.240359
v -0.963378 -1.745444 0.342643
v -0.985378 0.072558 0.342643
v -0.950378 0.038559 -2.240358
v 0.951622 -1.818443 -0.365358
v 0.957622 -1.818443 -2.236359
v 0.957622 0.041559 -2.236358
v 0.951622 0.060559 -0.365357
vn -0.0000 1.0000 -0.0000
vn 1.0000 -0.0000 -0.0000
vn -1.0000 -0.0000 -0.0000
vn -0.0000 -0.0000 1.0000
vn -0.0000 -0.0000 -1.0000
vn -0.0000 -1.0000 -0.0000
vn 0.9998 0.0121 0.0132
vn 0.9998 0.0119 0.0133
vn 0.9998 0.0120 0.0133
vn 0.9998 0.0118 0.0134
vn -1.0000 -0.0000 -0.0032
vt 0.249939 0.937561
vt 0.156250 1.000000
vt 0.156250 0.937561
vt 0.249939 1.000000
vt 0.218689 0.937500
vt 0.156250 0.843811
vt 0.156250 0.937500
vt 0.218689 0.843811
vt 0.062439 0.937500
vt 0.000000 0.843811
vt 0.000000 0.937500
vt 0.062439 0.843811
vt 0.156189 0.937500
vt 0.062500 0.843811
vt 0.062500 0.937500
vt 0.156189 0.843811
vt 0.312439 0.843811
vt 0.218750 0.843811
vt 0.312439 0.937500
vt 0.156189 1.000000
vt 0.062500 0.937561
vt 0.062500 1.000000
vt 0.156189 0.937561
vt 0.156189 0.781311
vt 0.109375 0.843750
vt 0.109375 0.781311
vt 0.156189 0.843750
vt 0.171814 0.781250
vt 0.109375 0.750061
vt 0.109375 0.781250
vt 0.171814 0.750061
vt 0.062439 0.781250
vt 0.000000 0.750061
vt 0.000000 0.781250
vt 0.062439 0.750061
vt 0.109314 0.781250
vt 0.062500 0.750061
vt 0.062500 0.781250
vt 0.109314 0.750061
vt 0.218689 0.781250
vt 0.171875 0.750061
vt 0.171875 0.781250
vt 0.218689 0.750061
vt 0.109314 0.843750
vt 0.062500 0.781311
vt 0.062500 0.843750
vt 0.109314 0.781311
vt 0.109314 0.750000
vt 0.062500 0.734436
vt 0.062500 0.750000
vt 0.109314 0.734436
vt 0.218689 0.750000
vt 0.171875 0.734436
vt 0.171875 0.750000
vt 0.218689 0.734436
vt 0.000000 0.734436
vt 0.026255 0.740981
vt 0.026112 0.734436
vt 0.000000 0.750000
vt 0.026452 0.750000
vt 0.026255 0.740981
vt 0.109314 0.812500
vt 0.109314 0.787269
vt 0.090020 0.786766
vt 0.090020 0.786766
vt 0.062500 0.812500
vt 0.062500 0.786048
vt 0.109375 0.812500
vt 0.128577 0.786889
vt 0.156189 0.812500
vt 0.156189 0.787610
vt 0.109375 0.786388
vt 0.171814 0.734436
vt 0.146923 0.734436
vt 0.171814 0.750000
vt 0.146720 0.743745
vt 0.146583 0.750000
vt 0.062439 0.734436
vt 0.040037 0.734436
vt 0.062439 0.750000
vt 0.040135 0.744440
vt 0.040135 0.744440
vt 0.040186 0.750000
vt 0.078438 0.771319
vt 0.109314 0.769380
vt 0.062500 0.772314
vt 0.156189 0.750061
vt 0.156189 0.769528
vt 0.140872 0.770490
vt 0.109375 0.772463
vt 0.109375 0.734436
vt 0.128795 0.739277
vt 0.128842 0.734436
vt 0.109375 0.750000
vt 0.128694 0.750000
vt 0.328064 0.765686
vt 0.296875 0.781250
vt 0.296875 0.765686
vt 0.328064 0.781250
vt 0.312439 0.765625
vt 0.296875 0.734436
vt 0.296875 0.765625
vt 0.312439 0.734436
vt 0.265564 0.765625
vt 0.250000 0.734436
vt 0.250000 0.765625
vt 0.265564 0.734436
vt 0.296814 0.765625
vt 0.265625 0.734436
vt 0.265625 0.765625
vt 0.296814 0.734436
vt 0.343689 0.765625
vt 0.312500 0.734436
vt 0.312500 0.765625
vt 0.343689 0.734436
vt 0.296814 0.781250
vt 0.265625 0.765686
vt 0.265625 0.781250
vt 0.296814 0.765686
vt 0.905275 0.797105
vt 0.951257 0.797105
vt 0.905275 0.842764
vt 0.951257 0.842764
vt 0.842498 0.797105
vt 0.905232 0.797105
vt 0.842498 0.842764
vt 0.905232 0.842764
vt 0.998332 0.797105
vt 0.951257 0.842718
vt 0.998332 0.842718
s 1
usemtl Standard(Clone)
f 2/1/1 1/2/1 3/3/1
f 5/4/1 4/2/1 6/1/1
f 8/5/2 7/6/2 9/7/2
f 11/8/2 10/6/2 12/5/2
f 14/9/3 13/10/3 15/11/3
f 17/12/3 16/10/3 18/9/3
f 20/13/4 19/14/4 21/15/4
f 23/16/4 22/14/4 24/13/4
f 26/17/5 25/18/5 27/19/5
f 29/20/6 28/21/6 30/22/6
f 32/23/6 31/21/6 33/20/6
f 35/24/1 34/25/1 36/26/1
f 38/27/1 37/25/1 39/24/1
f 41/28/2 40/29/2 42/30/2
f 44/31/2 43/29/2 45/28/2
f 47/32/3 46/33/3 48/34/3
f 50/35/3 49/33/3 51/32/3
f 53/36/4 52/37/4 54/38/4
f 56/39/4 55/37/4 57/36/4
f 59/40/5 58/41/5 60/42/5
f 62/43/5 61/41/5 63/40/5
f 65/44/6 64/45/6 66/46/6
f 68/47/6 67/45/6 69/44/6
f 71/48/4 70/49/4 72/50/4
f 74/51/4 73/49/4 75/48/4
f 77/52/5 76/53/5 78/54/5
f 80/55/5 79/53/5 81/52/5
f 83/56/3 82/57/3 84/58/3
f 86/59/3 85/60/3 87/56/3
f 85/60/3 88/61/3 87/56/3
f 90/62/6 89/63/6 91/64/6
f 93/62/6 92/65/6 94/66/6
f 92/65/6 95/67/6 94/66/6
f 97/68/1 96/69/1 98/70/1
f 96/69/1 99/71/1 98/70/1
f 101/68/1 100/72/1 102/69/1
f 104/73/2 103/74/2 105/75/2
f 103/74/2 106/76/2 105/75/2
f 108/75/2 107/76/2 109/77/2
f 111/78/3 110/79/3 112/80/3
f 110/79/3 113/81/3 112/80/3
f 115/57/3 114/81/3 116/58/3
f 114/81/3 117/79/3 116/58/3
f 119/80/3 118/82/3 120/83/3
f 122/60/3 121/83/3 123/61/3
f 121/83/3 124/82/3 123/61/3
f 126/37/6 125/84/6 127/39/6
f 125/84/6 128/85/6 127/39/6
f 130/63/6 129/85/6 131/64/6
f 129/85/6 132/84/6 131/64/6
f 134/37/6 133/86/6 135/84/6
f 137/65/6 136/84/6 138/67/6
f 136/84/6 139/86/6 138/67/6
f 141/87/1 140/88/1 142/89/1
f 144/69/1 143/89/1 145/71/1
f 143/89/1 146/88/1 145/71/1
f 148/87/1 147/89/1 149/29/1
f 147/89/1 150/90/1 149/29/1
f 152/72/1 151/90/1 153/69/1
f 151/90/1 154/89/1 153/69/1
f 156/91/2 155/92/2 157/93/2
f 159/74/2 158/93/2 160/76/2
f 158/93/2 161/92/2 160/76/2
f 163/94/2 162/95/2 164/91/2
f 162/95/2 165/92/2 164/91/2
f 167/76/2 166/92/2 168/77/2
f 166/92/2 169/95/2 168/77/2
f 171/96/1 170/97/1 172/98/1
f 174/99/1 173/97/1 175/96/1
f 177/100/2 176/101/2 178/102/2
f 180/103/2 179/101/2 181/100/2
f 183/104/3 182/105/3 184/106/3
f 186/107/3 185/105/3 187/104/3
f 189/108/4 188/109/4 190/110/4
f 192/111/4 191/109/4 193/108/4
f 195/112/5 194/113/5 196/114/5
f 198/115/5 197/113/5 199/112/5
f 201/116/6 200/117/6 202/118/6
f 204/119/6 203/117/6 205/116/6
f 207/96/1 206/97/1 208/98/1
f 210/99/1 209/97/1 211/96/1
f 213/100/2 212/101/2 214/102/2
f 216/103/2 215/101/2 217/100/2
f 219/104/3 218/105/3 220/106/3
f 222/107/3 221/105/3 223/104/3
f 225/108/4 224/109/4 226/110/4
f 228/111/4 227/109/4 229/108/4
f 231/112/5 230/113/5 232/114/5
f 234/115/5 233/113/5 235/112/5
f 237/116/6 236/117/6 238/118/6
f 240/119/6 239/117/6 241/116/6
f 243/120/4 242/121/4 244/122/4
f 242/121/4 245/123/4 244/122/4
f 247/124/7 246/125/8 248/126/9
f 246/125/8 249/127/10 248/126/9
f 251/121/11 250/128/11 252/129/11
f 250/128/11 253/130/11 252/129/11
