# Blender 4.5.3 LTS
# www.blender.org
mtllib pb_tail.mtl
o Lobo.006
v 0.594281 0.636414 -0.134394
v -0.655719 -0.586963 0.124188
v -0.655719 0.636414 -0.134394
v 0.594281 0.636414 -0.134394
v 0.594281 -0.586963 0.124188
v -0.655719 -0.586963 0.124188
v -0.655719 1.669401 4.757625
v 0.594281 0.446024 5.016206
v 0.594281 1.669401 4.757625
v -0.655719 1.669401 4.757625
v -0.655719 0.446024 5.016206
v 0.594281 0.446024 5.016206
v -0.003719 1.130575 2.206676
v 0.594281 0.636414 -0.134394
v -0.655719 0.636414 -0.134394
v -0.655719 1.130575 2.206676
v 0.594281 1.130575 2.206676
v 0.594281 0.636414 -0.134394
v -0.003719 1.130575 2.206676
v 0.594281 0.413660 2.179126
v 0.594281 -0.586963 0.124188
v 0.594281 0.636414 -0.134394
v 0.594281 1.130575 2.206676
v 0.594281 -0.158020 2.156902
v 0.594281 -0.586963 0.124188
v 0.594281 0.413660 2.179126
v -0.136219 -0.158020 2.156902
v -0.655719 -0.586963 0.124188
v 0.594281 -0.586963 0.124188
v 0.594281 -0.158020 2.156902
v -0.655719 -0.158020 2.156902
v -0.655719 -0.586963 0.124188
v -0.136219 -0.158020 2.156902
v -0.655719 0.550756 2.184369
v -0.655719 0.636414 -0.134394
v -0.655719 -0.586963 0.124188
v -0.655719 -0.158020 2.156902
v -0.655719 1.130575 2.206676
v -0.655719 0.636414 -0.134394
v -0.655719 0.550756 2.184369
v -0.655719 1.279608 2.912189
v -0.655719 1.669401 4.757625
v -0.183719 1.279312 2.911111
v -0.183719 1.279312 2.911111
v -0.003719 1.130575 2.206676
v -0.655719 1.130575 2.206676
v -0.655719 1.279608 2.912189
v -0.183719 1.279312 2.911111
v -0.655719 1.669401 4.757625
v 0.594281 1.669401 4.757625
v 0.594281 1.278719 2.908954
v 0.594281 1.278719 2.908954
v 0.594281 1.130575 2.206676
v -0.003719 1.130575 2.206676
v -0.183719 1.279312 2.911111
v 0.594281 1.278719 2.908954
v 0.594281 1.669401 4.757625
v 0.594281 0.787397 2.946283
v 0.594281 0.787397 2.946283
v 0.594281 0.413660 2.179126
v 0.594281 1.130575 2.206676
v 0.594281 1.278719 2.908954
v 0.594281 0.787397 2.946283
v 0.594281 1.669401 4.757625
v 0.594281 0.446024 5.016206
v 0.594281 0.021220 3.005311
v 0.594281 0.021220 3.005311
v 0.594281 -0.158020 2.156902
v 0.594281 0.413660 2.179126
v 0.594281 0.787397 2.946283
v 0.594281 0.021220 3.005311
v 0.594281 0.446024 5.016206
v 0.080781 0.021515 3.006389
v 0.080781 0.021515 3.006389
v -0.136219 -0.158020 2.156902
v 0.594281 -0.158020 2.156902
v 0.594281 0.021220 3.005311
v 0.080781 0.021515 3.006389
v 0.594281 0.446024 5.016206
v -0.655719 0.446024 5.016206
v -0.655719 0.022107 3.008546
v -0.655719 0.022107 3.008546
v -0.655719 -0.158020 2.156902
v -0.136219 -0.158020 2.156902
v 0.080781 0.021515 3.006389
v -0.655719 0.022107 3.008546
v -0.655719 0.446024 5.016206
v -0.655719 0.521978 2.970260
v -0.655719 0.521978 2.970260
v -0.655719 0.550756 2.184369
v -0.655719 -0.158020 2.156902
v -0.655719 0.022107 3.008546
v -0.655719 0.521978 2.970260
v -0.655719 0.446024 5.016206
v -0.655719 1.669401 4.757625
v -0.655719 1.279608 2.912189
v -0.655719 1.279608 2.912189
v -0.655719 1.130575 2.206676
v -0.655719 0.550756 2.184369
v -0.655719 0.521978 2.970260
vn -0.0000 0.2068 0.9784
vn -0.0000 -0.2068 -0.9784
vn -0.0000 -0.9784 0.2065
vn -1.0000 -0.0000 -0.0000
vn -0.0000 0.9785 -0.2065
vn 1.0000 -0.0000 -0.0000
vn -0.0001 -0.9784 0.2067
vn -0.0000 -0.9784 0.2066
vn -0.0001 -0.9784 0.2066
vn -0.0000 -0.9784 0.2067
vn -0.0002 -0.9784 0.2068
vn -0.0000 -0.9785 0.2064
vn -0.0001 -0.9785 0.2065
vn -0.0002 -0.9784 0.2065
vn 0.0001 0.9784 -0.2067
vn -0.0000 0.9784 -0.2068
vn -0.0000 0.9784 -0.2067
vn 0.0001 0.9784 -0.2066
vn -0.0000 0.9784 -0.2066
vn 0.0002 0.9784 -0.2066
vn -0.0000 0.9784 -0.2069
vn 0.0001 0.9784 -0.2069
vn 0.0002 0.9784 -0.2068
vt 0.234314 0.687561
vt 0.203125 0.718750
vt 0.203125 0.687561
vt 0.234314 0.718750
vt 0.203064 0.718750
vt 0.171875 0.687561
vt 0.171875 0.718750
vt 0.203064 0.687561
vt 0.140625 0.562561
vt 0.155549 0.622346
vt 0.171814 0.562561
vt 0.171814 0.622346
vt 0.140625 0.622346
vt 0.234375 0.562561
vt 0.248206 0.617965
vt 0.265564 0.562561
vt 0.265564 0.622346
vt 0.234375 0.614474
vt 0.203125 0.562561
vt 0.216084 0.614474
vt 0.234314 0.562561
vt 0.234314 0.614474
vt 0.203125 0.614474
vt 0.171875 0.562561
vt 0.185915 0.618802
vt 0.203064 0.562561
vt 0.203064 0.614475
vt 0.171875 0.622346
vt 0.171814 0.687500
vt 0.171814 0.640372
vt 0.160041 0.640340
vt 0.140625 0.687500
vt 0.140625 0.640285
vt 0.265564 0.687500
vt 0.265564 0.640285
vt 0.253372 0.638661
vt 0.234375 0.687500
vt 0.234375 0.636136
vt 0.234314 0.687500
vt 0.234314 0.636136
vt 0.221501 0.636172
vt 0.203125 0.687500
vt 0.203125 0.636223
vt 0.203064 0.687500
vt 0.203064 0.636223
vt 0.190674 0.637869
vt 0.171875 0.687500
vt 0.171875 0.640372
s 1
usemtl Standard(Clone)
f 2/1/1 1/2/1 3/3/1
f 5/4/1 4/2/1 6/1/1
f 8/5/2 7/6/2 9/7/2
f 11/8/2 10/6/2 12/5/2
f 14/9/3 13/10/3 15/11/3
f 13/10/3 16/12/3 15/11/3
f 18/9/3 17/13/3 19/10/3
f 21/14/4 20/15/4 22/16/4
f 20/15/4 23/17/4 22/16/4
f 25/14/4 24/18/4 26/15/4
f 28/19/5 27/20/5 29/21/5
f 27/20/5 30/22/5 29/21/5
f 32/19/5 31/23/5 33/20/5
f 35/24/6 34/25/6 36/26/6
f 34/25/6 37/27/6 36/26/6
f 39/24/6 38/28/6 40/25/6
f 42/29/7 41/30/7 43/31/7
f 45/10/8 44/31/9 46/12/9
f 44/31/9 47/30/7 46/12/9
f 49/29/10 48/31/7 50/32/10
f 48/31/7 51/33/11 50/32/10
f 53/13/12 52/33/13 54/10/13
f 52/33/13 55/31/14 54/10/13
f 57/34/4 56/35/4 58/36/4
f 60/15/4 59/36/4 61/17/4
f 59/36/4 62/35/4 61/17/4
f 64/34/4 63/36/4 65/37/4
f 63/36/4 66/38/4 65/37/4
f 68/18/4 67/38/4 69/15/4
f 67/38/4 70/36/4 69/15/4
f 72/39/15 71/40/15 73/41/15
f 75/20/16 74/41/15 76/22/16
f 74/41/15 77/40/15 76/22/16
f 79/39/17 78/41/18 80/42/19
f 78/41/18 81/43/20 80/42/19
f 83/23/21 82/43/22 84/20/22
f 82/43/22 85/41/23 84/20/22
f 87/44/6 86/45/6 88/46/6
f 90/25/6 89/46/6 91/27/6
f 89/46/6 92/45/6 91/27/6
f 94/44/6 93/46/6 95/47/6
f 93/46/6 96/48/6 95/47/6
f 98/28/6 97/48/6 99/25/6
f 97/48/6 100/46/6 99/25/6
