# Blender 4.5.3 LTS
# www.blender.org
mtllib pbF_leftleg.mtl
o Lobo.003
v 0.628280 -2.486279 -0.625519
v -0.621721 -2.486279 0.624481
v -0.621721 -2.486279 -0.625519
v 0.628280 -2.486279 -0.625519
v 0.628280 -2.486279 0.624481
v -0.621721 -2.486279 0.624481
v -0.621721 2.513720 -0.625519
v 0.628280 2.513720 0.624481
v 0.628280 2.513720 -0.625519
v -0.621721 2.513720 -0.625519
v -0.621721 2.513720 0.624481
v 0.628280 2.513720 0.624481
v 0.628280 0.638719 -0.625519
v 0.628280 2.513720 -0.625519
v 0.628280 0.618720 -0.152019
v 0.628280 0.618720 -0.152019
v 0.628280 2.513720 -0.625519
v 0.628280 2.513720 0.624481
v 0.628280 0.585721 0.624481
v 0.628280 0.585721 0.624481
v 0.628280 2.513720 0.624481
v 0.145780 0.583720 0.624481
v 0.145780 0.583720 0.624481
v 0.628280 2.513720 0.624481
v -0.621721 2.513720 0.624481
v -0.621721 0.580220 0.624481
v -0.621721 0.580220 0.624481
v -0.621721 2.513720 0.624481
v -0.621721 0.600221 0.145981
v -0.621721 0.600221 0.145981
v -0.621721 2.513720 0.624481
v -0.621721 2.513720 -0.625519
v -0.621721 0.633221 -0.625519
v -0.621721 0.633221 -0.625519
v -0.621721 2.513720 -0.625519
v -0.152221 0.635220 -0.625519
v -0.152221 0.635220 -0.625519
v -0.621721 2.513720 -0.625519
v 0.628280 2.513720 -0.625519
v 0.628280 0.638719 -0.625519
v 0.628280 -0.662280 0.168481
v 0.628280 -2.486279 0.624481
v 0.628280 -2.486279 -0.625519
v 0.628280 -0.486780 -0.625519
v 0.628280 -0.486780 -0.625519
v 0.628280 0.638719 -0.625519
v 0.628280 0.618720 -0.152019
v 0.628280 -0.662280 0.168481
v 0.628280 -0.763280 0.624481
v 0.628280 -2.486279 0.624481
v 0.628280 -0.662280 0.168481
v 0.628280 -0.662280 0.168481
v 0.628280 0.618720 -0.152019
v 0.628280 0.585721 0.624481
v 0.628280 -0.763280 0.624481
v -0.190721 -0.762780 0.624481
v -0.621721 -2.486279 0.624481
v 0.628280 -2.486279 0.624481
v 0.628280 -0.763280 0.624481
v 0.628280 -0.763280 0.624481
v 0.628280 0.585721 0.624481
v 0.145780 0.583720 0.624481
v -0.190721 -0.762780 0.624481
v -0.621721 -0.762279 0.624481
v -0.621721 -2.486279 0.624481
v -0.190721 -0.762780 0.624481
v -0.190721 -0.762780 0.624481
v 0.145780 0.583720 0.624481
v -0.621721 0.580220 0.624481
v -0.621721 -0.762279 0.624481
v -0.621721 -0.590280 -0.151519
v -0.621721 -2.486279 -0.625519
v -0.621721 -2.486279 0.624481
v -0.621721 -0.762279 0.624481
v -0.621721 -0.762279 0.624481
v -0.621721 0.580220 0.624481
v -0.621721 0.600221 0.145981
v -0.621721 -0.590280 -0.151519
v -0.621721 -0.485279 -0.625519
v -0.621721 -2.486279 -0.625519
v -0.621721 -0.590280 -0.151519
v -0.621721 -0.590280 -0.151519
v -0.621721 0.600221 0.145981
v -0.621721 0.633221 -0.625519
v -0.621721 -0.485279 -0.625519
v 0.128280 -0.486281 -0.625519
v 0.628280 -2.486279 -0.625519
v -0.621721 -2.486279 -0.625519
v -0.621721 -0.485279 -0.625519
v -0.621721 -0.485279 -0.625519
v -0.621721 0.633221 -0.625519
v -0.152221 0.635220 -0.625519
v 0.128280 -0.486281 -0.625519
v 0.628280 -0.486780 -0.625519
v 0.628280 -2.486279 -0.625519
v 0.128280 -0.486281 -0.625519
v 0.128280 -0.486281 -0.625519
v -0.152221 0.635220 -0.625519
v 0.628280 0.638719 -0.625519
v 0.628280 -0.486780 -0.625519
vn -0.0000 1.0000 -0.0000
vn -0.0000 -1.0000 -0.0000
vn -1.0000 -0.0000 -0.0000
vn -0.0000 -0.0000 -1.0000
vn 1.0000 -0.0000 -0.0000
vn -0.0000 -0.0000 1.0000
vt 0.093689 0.687561
vt 0.062500 0.718750
vt 0.062500 0.687561
vt 0.093689 0.718750
vt 0.062439 0.718750
vt 0.031250 0.687561
vt 0.031250 0.718750
vt 0.062439 0.687561
vt 0.124939 0.687500
vt 0.124939 0.640652
vt 0.113119 0.640149
vt 0.093750 0.687500
vt 0.093750 0.639326
vt 0.093689 0.687500
vt 0.093689 0.639326
vt 0.081649 0.639271
vt 0.062500 0.687500
vt 0.062500 0.639184
vt 0.062439 0.687500
vt 0.062439 0.639184
vt 0.050504 0.639691
vt 0.031250 0.687500
vt 0.031250 0.640510
vt 0.031189 0.687500
vt 0.031189 0.640510
vt 0.019472 0.640563
vt 0.000000 0.687500
vt 0.000000 0.640652
vt 0.093750 0.562561
vt 0.105127 0.608135
vt 0.124939 0.562561
vt 0.124939 0.612529
vt 0.093750 0.605613
vt 0.062500 0.562561
vt 0.073252 0.605631
vt 0.093689 0.562561
vt 0.093689 0.605613
vt 0.062500 0.605643
vt 0.031250 0.562561
vt 0.043078 0.609941
vt 0.062439 0.562561
vt 0.062439 0.605643
vt 0.031250 0.612559
vt 0.000000 0.562561
vt 0.012477 0.612542
vt 0.031189 0.562561
vt 0.031189 0.612559
vt 0.000000 0.612529
s 1
usemtl Standard(Clone)
f 2/1/1 1/2/1 3/3/1
f 5/4/1 4/2/1 6/1/1
f 8/5/2 7/6/2 9/7/2
f 11/8/2 10/6/2 12/5/2
f 14/9/3 13/10/3 15/11/3
f 17/9/3 16/11/3 18/12/3
f 16/11/3 19/13/3 18/12/3
f 21/14/4 20/15/4 22/16/4
f 24/14/4 23/16/4 25/17/4
f 23/16/4 26/18/4 25/17/4
f 28/19/5 27/20/5 29/21/5
f 31/19/5 30/21/5 32/22/5
f 30/21/5 33/23/5 32/22/5
f 35/24/6 34/25/6 36/26/6
f 38/24/6 37/26/6 39/27/6
f 37/26/6 40/28/6 39/27/6
f 42/29/3 41/30/3 43/31/3
f 41/30/3 44/32/3 43/31/3
f 46/10/3 45/32/3 47/11/3
f 45/32/3 48/30/3 47/11/3
f 50/29/3 49/33/3 51/30/3
f 53/11/3 52/30/3 54/13/3
f 52/30/3 55/33/3 54/13/3
f 57/34/4 56/35/4 58/36/4
f 56/35/4 59/37/4 58/36/4
f 61/15/4 60/37/4 62/16/4
f 60/37/4 63/35/4 62/16/4
f 65/34/4 64/38/4 66/35/4
f 68/16/4 67/35/4 69/18/4
f 67/35/4 70/38/4 69/18/4
f 72/39/5 71/40/5 73/41/5
f 71/40/5 74/42/5 73/41/5
f 76/20/5 75/42/5 77/21/5
f 75/42/5 78/40/5 77/21/5
f 80/39/5 79/43/5 81/40/5
f 83/21/5 82/40/5 84/23/5
f 82/40/5 85/43/5 84/23/5
f 87/44/6 86/45/6 88/46/6
f 86/45/6 89/47/6 88/46/6
f 91/25/6 90/47/6 92/26/6
f 90/47/6 93/45/6 92/26/6
f 95/44/6 94/48/6 96/45/6
f 98/26/6 97/45/6 99/28/6
f 97/45/6 100/48/6 99/28/6
